<svg width="20" height="20" viewBox="0 0 20 20" fill="none" xmlns="http://www.w3.org/2000/svg">
<path d="M9.99984 8.33341C11.8408 8.33341 13.3332 6.84103 13.3332 5.00008C13.3332 3.15913 11.8408 1.66675 9.99984 1.66675C8.15889 1.66675 6.6665 3.15913 6.6665 5.00008C6.6665 6.84103 8.15889 8.33341 9.99984 8.33341Z" stroke="#1A1A1A" stroke-width="1.25"/>
<path opacity="0.5" d="M15 7.50016C16.3808 7.50016 17.5 6.56683 17.5 5.41683C17.5 4.26683 16.3808 3.3335 15 3.3335M5 7.50016C3.61917 7.50016 2.5 6.56683 2.5 5.41683C2.5 4.26683 3.61917 3.3335 5 3.3335" stroke="#1A1A1A" stroke-width="1.25" stroke-linecap="round"/>
<path d="M10 17.5002C12.7614 17.5002 15 16.0078 15 14.1668C15 12.3259 12.7614 10.8335 10 10.8335C7.23858 10.8335 5 12.3259 5 14.1668C5 16.0078 7.23858 17.5002 10 17.5002Z" stroke="#1A1A1A" stroke-width="1.25"/>
<path opacity="0.5" d="M16.6666 15.8334C18.1283 15.5126 19.1666 14.7009 19.1666 13.7501C19.1666 12.7992 18.1283 11.9876 16.6666 11.6667M3.33325 15.8334C1.87159 15.5126 0.833252 14.7009 0.833252 13.7501C0.833252 12.7992 1.87159 11.9876 3.33325 11.6667" stroke="#1A1A1A" stroke-width="1.25" stroke-linecap="round"/>
</svg>
