<svg width="20" height="20" viewBox="0 0 20 20" fill="none" xmlns="http://www.w3.org/2000/svg">
<path d="M10.8334 4.99984C10.8334 4.77882 10.7456 4.56686 10.5893 4.41058C10.4331 4.2543 10.2211 4.1665 10.0001 4.1665C9.77907 4.1665 9.56711 4.2543 9.41083 4.41058C9.25455 4.56686 9.16675 4.77882 9.16675 4.99984V9.1665H5.00008C4.77907 9.1665 4.56711 9.2543 4.41083 9.41058C4.25455 9.56686 4.16675 9.77882 4.16675 9.99984C4.16675 10.2209 4.25455 10.4328 4.41083 10.5891C4.56711 10.7454 4.77907 10.8332 5.00008 10.8332H9.16675V14.9998C9.16675 15.2209 9.25455 15.4328 9.41083 15.5891C9.56711 15.7454 9.77907 15.8332 10.0001 15.8332C10.2211 15.8332 10.4331 15.7454 10.5893 15.5891C10.7456 15.4328 10.8334 15.2209 10.8334 14.9998V10.8332H15.0001C15.2211 10.8332 15.4331 10.7454 15.5893 10.5891C15.7456 10.4328 15.8334 10.2209 15.8334 9.99984C15.8334 9.77882 15.7456 9.56686 15.5893 9.41058C15.4331 9.2543 15.2211 9.1665 15.0001 9.1665H10.8334V4.99984Z" fill="white"/>
</svg>
