<svg width="18" height="18" viewBox="0 0 18 18" fill="none" xmlns="http://www.w3.org/2000/svg">
<path d="M7.68675 1.23488C7.97823 1.19157 8.27507 1.26434 8.51345 1.43757C8.75184 1.6108 8.91274 1.87065 8.96157 2.16125C9.01039 2.45186 8.94325 2.75002 8.77456 2.99164C8.60588 3.23327 8.34913 3.39906 8.0595 3.45338C6.74923 3.67559 5.55994 4.35454 4.70247 5.36989C3.845 6.38524 3.37472 7.6714 3.375 9.00038C3.375 10.4922 3.96763 11.923 5.02252 12.9779C6.07742 14.0327 7.50816 14.6254 9 14.6254V16.8754C4.65075 16.8754 1.125 13.3504 1.125 9.00038C1.125 5.14163 3.9195 1.86788 7.68675 1.23488Z" fill="url(#paint0_linear_3226_19832)"/>
<path d="M12.669 3.22371C12.7677 3.11364 12.887 3.0241 13.0203 2.96019C13.1536 2.89629 13.2982 2.85927 13.4458 2.85126C13.5933 2.84325 13.7411 2.86441 13.8805 2.91351C14.0199 2.96262 14.1483 3.03872 14.2582 3.13746C15.0825 3.87548 15.7416 4.77919 16.1925 5.78947C16.6434 6.79976 16.876 7.89386 16.875 9.00021C16.875 13.3502 13.3492 16.8752 9 16.8752V14.6252C10.1386 14.6252 11.2504 14.2797 12.1885 13.6343C13.1265 12.9889 13.8466 12.074 14.2535 11.0106C14.6605 9.9472 14.7351 8.78532 14.4676 7.67858C14.2001 6.57183 13.603 5.57233 12.7552 4.81221C12.5332 4.61298 12.3994 4.33371 12.3832 4.03582C12.367 3.73792 12.4698 3.44581 12.669 3.22371Z" fill="url(#paint1_linear_3226_19832)"/>
<defs>
<linearGradient id="paint0_linear_3226_19832" x1="5.0625" y1="2.04771" x2="5.0625" y2="15.5908" gradientUnits="userSpaceOnUse">
<stop stop-color="#93996D"/>
<stop offset="1" stop-color="#93996D" stop-opacity="0.55"/>
</linearGradient>
<linearGradient id="paint1_linear_3226_19832" x1="12.9375" y1="4.98711" x2="12.9375" y2="15.0729" gradientUnits="userSpaceOnUse">
<stop stop-color="#93996D" stop-opacity="0"/>
<stop offset="1" stop-color="#93996D" stop-opacity="0.55"/>
</linearGradient>
</defs>
</svg>
