<svg width="22" height="20" viewBox="0 0 22 20" fill="none" xmlns="http://www.w3.org/2000/svg">
<path d="M13.9412 17.875C15.3529 13.7373 16.9129 12.2444 21 11.125C16.9129 10.0056 15.3529 8.51275 13.9412 4.375C12.5294 8.51275 10.9694 10.0056 6.88235 11.125C10.9694 12.2444 12.5294 13.7373 13.9412 17.875ZM4.52941 7.75C5.23529 5.68 6.01529 4.93413 8.05882 4.375C6.01529 3.81587 5.23529 3.07 4.52941 1C3.82353 3.07 3.04353 3.81587 1 4.375C3.04353 4.93413 3.82353 5.68 4.52941 7.75ZM6.29412 19C6.64706 17.965 7.03647 17.5926 8.05882 17.3125C7.03647 17.0324 6.64706 16.66 6.29412 15.625C5.94118 16.66 5.55176 17.0324 4.52941 17.3125C5.55176 17.5926 5.94118 17.965 6.29412 19Z" stroke="white" stroke-width="2" stroke-linejoin="round"/>
</svg>
