<svg width="29" height="13" viewBox="0 0 29 13" fill="none" xmlns="http://www.w3.org/2000/svg">
<path d="M8.5 9.17717V8.3045C8.5 8.3045 8.5 6.22767 14.1667 6.22767C19.8333 6.22767 19.8333 8.3045 19.8333 8.3045V8.85417C19.8333 10.2085 20.8576 11.3617 22.2417 11.5628L25.075 11.9793C26.7892 12.2301 28.3333 10.9452 28.3333 9.26925V6.25883C28.3333 5.42725 28.0727 4.60983 27.4408 4.046C25.8258 2.60242 21.845 0 14.1667 0C6.02225 0 2.04 3.65925 0.623333 5.36775C0.177083 5.9075 0 6.59175 0 7.28308V10.0073C0 11.8462 1.836 13.1637 3.655 12.631L6.48833 11.7994C7.68258 11.4495 8.5 10.3856 8.5 9.17858V9.17717Z" fill="white"/>
</svg>
