<svg width="22" height="22" viewBox="0 0 22 22" fill="none" xmlns="http://www.w3.org/2000/svg">
<path d="M11.0001 2.0625C10.5704 2.0625 10.1434 2.20688 9.77563 2.47088L8.63713 3.26562L7.32538 3.4375H7.30407L7.28276 3.45881C6.85241 3.55566 6.45837 3.77265 6.14646 4.08457C5.83454 4.39649 5.61755 4.79052 5.5207 5.22087L5.50007 5.24219V5.2635L5.3282 6.59587L4.53345 7.62712L4.51145 7.64844V7.66975C4.03088 8.43769 4.00957 9.42906 4.53345 10.1619L5.34951 11.3004L5.5647 12.4829L3.35163 15.8551L2.64282 16.9084H5.92976L6.72451 18.7557L7.21882 19.9375L7.92764 18.8629L10.0974 15.5973C10.6804 15.8366 11.3383 15.8586 11.9028 15.5973L14.0725 18.8629L14.7813 19.9375L15.2756 18.7557L16.0704 16.9084H19.3573L18.6485 15.8551L16.5001 12.5902L16.6719 11.3011L17.4667 10.1626L17.4887 10.1413V10.12C17.9693 9.35206 17.9906 8.382 17.4667 7.64913L16.6719 6.50994L16.4141 5.22087H16.4354C16.4327 5.20437 16.4169 5.19338 16.4141 5.17756C16.2904 4.27831 15.5788 3.54819 14.6741 3.4375H14.6521L13.363 3.26562L12.2245 2.47088C11.869 2.21023 11.4408 2.06742 11.0001 2.0625ZM11.0001 3.45881C11.1582 3.45881 11.3143 3.50694 11.4298 3.58806L12.6542 4.46875L12.8048 4.576L12.9766 4.598L14.4809 4.8125H14.5015C14.8109 4.84687 15.0254 5.06206 15.0604 5.37144V5.41406L15.3403 6.93962L15.3609 7.09019L15.4688 7.21875L16.3495 8.44319C16.5138 8.67144 16.5351 9.0585 16.3282 9.3885L15.3616 10.7422L15.3396 10.9141L15.1251 12.4183V12.4389C15.1135 12.5463 15.0767 12.6495 15.0178 12.7401L14.9745 12.7621V12.7827C14.8723 12.9054 14.7258 12.9828 14.5668 12.9979H14.5235L12.9553 13.2777L12.7834 13.2983L12.6542 13.4062L11.4298 14.2869C11.2015 14.4513 10.7931 14.4726 10.4631 14.2656L9.34595 13.4062L9.2167 13.299L9.02351 13.277L7.51926 13.0625H7.49863C7.4015 13.0536 7.30789 13.0217 7.22561 12.9693C7.14333 12.9169 7.07477 12.8456 7.02563 12.7614C6.98012 12.682 6.9509 12.5944 6.9397 12.5036V12.4609L6.66057 10.8927L6.63857 10.7209L6.53132 10.5916L5.65063 9.36719C5.48632 9.13894 5.46501 8.73056 5.67195 8.40056L6.53132 7.28337L6.63857 7.15413L6.65988 6.96094L6.85376 5.52131C6.85651 5.511 6.87232 5.511 6.87507 5.5C6.91833 5.33469 7.00481 5.18388 7.12563 5.06306C7.24646 4.94224 7.39727 4.85575 7.56257 4.8125C7.57357 4.80975 7.57357 4.79394 7.58389 4.79119L9.02351 4.59731L9.19538 4.57669L9.34595 4.46875L10.5704 3.58806C10.6859 3.50762 10.8419 3.45881 11.0001 3.45881ZM15.7479 13.9219L16.8012 15.5334H15.1457L14.9738 15.9631L14.5015 17.0583L13.0406 14.8239L13.3623 14.5881L14.7167 14.3516V14.3729C14.7325 14.3701 14.7428 14.3543 14.7593 14.3516C15.1212 14.2994 15.463 14.151 15.7479 13.9219ZM6.2522 13.9432C6.55073 14.2146 6.92576 14.3872 7.32607 14.4375H7.34738L8.65845 14.6094L8.95889 14.8459L7.49795 17.0583L7.02563 15.9631L6.85376 15.5334H5.19963L6.2522 13.9432Z" fill="white"/>
</svg>
