<svg width="22" height="22" viewBox="0 0 22 22" fill="none" xmlns="http://www.w3.org/2000/svg">
<path d="M10.9999 1.8335C16.0627 1.8335 20.1666 5.93741 20.1666 11.0002C20.1666 16.0629 16.0627 20.1668 10.9999 20.1668C5.93717 20.1668 1.83325 16.0629 1.83325 11.0002C1.83325 5.93741 5.93717 1.8335 10.9999 1.8335ZM10.9999 3.66683C9.055 3.66683 7.18974 4.43945 5.81447 5.81471C4.4392 7.18998 3.66659 9.05524 3.66659 11.0002C3.66659 12.9451 4.4392 14.8103 5.81447 16.1856C7.18974 17.5609 9.055 18.3335 10.9999 18.3335C12.9448 18.3335 14.8101 17.5609 16.1854 16.1856C17.5606 14.8103 18.3333 12.9451 18.3333 11.0002C18.3333 9.05524 17.5606 7.18998 16.1854 5.81471C14.8101 4.43945 12.9448 3.66683 10.9999 3.66683ZM10.9999 5.50016C11.2244 5.50019 11.4411 5.58262 11.6089 5.73182C11.7767 5.88101 11.8839 6.0866 11.9102 6.30958L11.9166 6.41683V10.6207L14.398 13.1021C14.5624 13.267 14.6579 13.4884 14.665 13.7212C14.6721 13.954 14.5903 14.1807 14.4363 14.3554C14.2822 14.5301 14.0675 14.6396 13.8357 14.6617C13.6038 14.6838 13.3722 14.6168 13.188 14.4743L13.1018 14.3982L10.3518 11.6482C10.2094 11.5057 10.1179 11.3201 10.0915 11.1202L10.0833 11.0002V6.41683C10.0833 6.17371 10.1798 5.94056 10.3517 5.76865C10.5236 5.59674 10.7568 5.50016 10.9999 5.50016Z" fill="white"/>
</svg>
