<svg width="29" height="29" viewBox="0 0 29 29" fill="none" xmlns="http://www.w3.org/2000/svg">
<path d="M14.4998 2.41663C21.1735 2.41663 26.5832 7.82633 26.5832 14.5C26.5832 21.1736 21.1735 26.5833 14.4998 26.5833C7.82621 26.5833 2.4165 21.1736 2.4165 14.5C2.4165 7.82633 7.82621 2.41663 14.4998 2.41663ZM14.4998 4.83329C11.9361 4.83329 9.47732 5.85174 7.66447 7.66459C5.85162 9.47745 4.83317 11.9362 4.83317 14.5C4.83317 17.0637 5.85162 19.5225 7.66447 21.3353C9.47732 23.1482 11.9361 24.1666 14.4998 24.1666C17.0636 24.1666 19.5224 23.1482 21.3352 21.3353C23.1481 19.5225 24.1665 17.0637 24.1665 14.5C24.1665 11.9362 23.1481 9.47745 21.3352 7.66459C19.5224 5.85174 17.0636 4.83329 14.4998 4.83329ZM14.4998 7.24996C14.7958 7.25 15.0815 7.35866 15.3026 7.55532C15.5238 7.75199 15.6651 8.02299 15.6997 8.31692L15.7082 8.45829V13.9997L18.9791 17.2707C19.1958 17.4881 19.3217 17.7799 19.331 18.0868C19.3404 18.3936 19.2326 18.6925 19.0296 18.9228C18.8265 19.1531 18.5435 19.2974 18.2378 19.3265C17.9322 19.3556 17.627 19.2673 17.3841 19.0795L17.2705 18.9793L13.6455 15.3543C13.4577 15.1663 13.3371 14.9217 13.3024 14.6583L13.2915 14.5V8.45829C13.2915 8.13782 13.4188 7.83048 13.6454 7.60387C13.872 7.37727 14.1794 7.24996 14.4998 7.24996Z" fill="white"/>
</svg>
