<svg width="24" height="24" viewBox="0 0 24 24" fill="none" xmlns="http://www.w3.org/2000/svg">
<g clip-path="url(#clip0_3226_22293)">
<path fill-rule="evenodd" clip-rule="evenodd" d="M14.0224 16.4832L10.4544 19.1322C10.2444 19.2922 9.93444 19.6122 9.60444 19.8422C9.49518 19.9471 9.35482 20.0138 9.20444 20.0322C8.79881 19.9748 8.42489 19.7808 8.14444 19.4822C7.61919 18.9568 7.1351 18.3918 6.69644 17.7922C5.90644 16.7922 5.13644 15.7932 4.39644 14.7932C3.65644 13.7932 2.97744 12.7442 2.32744 11.6752C0.978439 9.49519 1.05844 10.2652 1.57744 9.70519C1.89077 9.35186 2.22411 9.01886 2.57744 8.70619C2.93077 8.39353 3.30077 8.10352 3.68744 7.83619L5.68644 6.24719L6.34644 5.73719C6.50644 5.73719 6.67644 5.91719 6.85644 6.07719C7.10444 6.30986 7.33777 6.55652 7.55644 6.81719L8.55544 8.01719L11.8334 12.4042C11.8617 12.4423 11.8971 12.4744 11.9378 12.4988C11.9785 12.5232 12.0235 12.5393 12.0704 12.5463C12.1173 12.5532 12.1651 12.5509 12.2111 12.5394C12.2571 12.5279 12.3004 12.5074 12.3384 12.4792C12.3765 12.451 12.4087 12.4155 12.4331 12.3748C12.4574 12.3342 12.4736 12.2891 12.4805 12.2422C12.4875 12.1953 12.4852 12.1475 12.4736 12.1015C12.4621 12.0555 12.4417 12.0123 12.4134 11.9742L9.25444 7.48819L8.30444 6.22819C7.97735 5.79973 7.60186 5.41048 7.18544 5.06819C6.91831 4.85646 6.58627 4.74343 6.24544 4.74819C6.06427 4.78075 5.89131 4.84871 5.73644 4.94819C5.50444 5.09619 5.28444 5.25953 5.07644 5.43819L3.07744 6.91819C2.64744 7.20819 2.23744 7.50819 1.83744 7.82819C1.43744 8.15952 1.05777 8.51252 0.698439 8.88719C0.457151 9.12294 0.242527 9.38451 0.0584394 9.66719C0.0198951 9.75551 0 9.85083 0 9.94719C0 10.0436 0.0198951 10.1389 0.0584394 10.2272C0.154439 10.4812 0.274439 10.7245 0.418439 10.9572C0.698439 11.4262 1.06844 11.8862 1.32844 12.3062C1.97844 13.3952 2.66844 14.4742 3.44744 15.5142C4.22644 16.5542 5.04744 17.5142 5.89644 18.5132C6.47802 19.2592 7.14943 19.9306 7.89544 20.5122C8.27944 20.7922 8.73944 20.9522 9.21544 20.9722C9.48977 20.9587 9.75408 20.8648 9.97544 20.7022C10.3261 20.4289 10.6591 20.1355 10.9744 19.8222C11.6544 19.2622 12.3344 18.6822 12.9734 18.1332C13.4268 17.7672 13.8868 17.4072 14.3534 17.0532C14.4088 17.0006 14.4436 16.93 14.4515 16.854C14.4593 16.778 14.4397 16.7017 14.3963 16.6389C14.3528 16.5761 14.2883 16.531 14.2144 16.5116C14.1405 16.4922 14.0622 16.4998 13.9934 16.5332L14.0224 16.4832Z" fill="white"/>
<path fill-rule="evenodd" clip-rule="evenodd" d="M8.91506 11.175C8.52285 10.7909 8.00994 10.5542 7.4632 10.505C6.91647 10.4558 6.36954 10.5971 5.91506 10.905C5.65543 11.1185 5.44253 11.3832 5.28959 11.6825C5.13665 11.9818 5.04694 12.3095 5.02606 12.645C4.9977 12.9835 5.04998 13.324 5.17861 13.6384C5.30724 13.9529 5.50856 14.2323 5.76606 14.454C6.16306 14.762 6.65306 14.924 7.15606 14.914C7.62406 14.921 8.08506 14.797 8.48506 14.554C8.55785 14.5102 8.61094 14.44 8.6333 14.358C8.65565 14.2761 8.64553 14.1886 8.60506 14.114C8.65458 14.1174 8.70426 14.1103 8.75081 14.093C8.79737 14.0758 8.83972 14.0488 8.87506 14.014C9.08841 13.8454 9.2615 13.6313 9.38175 13.3874C9.502 13.1435 9.56638 12.8759 9.57021 12.604C9.57404 12.3321 9.51722 12.0627 9.40389 11.8155C9.29057 11.5683 9.12357 11.3495 8.91506 11.175ZM8.33506 13.484C8.27673 13.5483 8.24443 13.6321 8.24443 13.719C8.24443 13.8058 8.27673 13.8896 8.33506 13.954H8.21506C7.90053 14.0905 7.55296 14.1322 7.21506 14.074C6.92073 14.0378 6.64832 13.8999 6.44506 13.684C6.33123 13.5469 6.25113 13.385 6.21118 13.2113C6.17124 13.0376 6.17257 12.857 6.21506 12.684C6.24652 12.3387 6.41158 12.0193 6.67506 11.794C6.90285 11.6276 7.18056 11.5439 7.46236 11.5566C7.74415 11.5693 8.01319 11.6777 8.22506 11.864C8.35982 11.9476 8.47275 12.0622 8.55451 12.1981C8.63626 12.3341 8.68451 12.4875 8.69525 12.6458C8.706 12.804 8.67894 12.9626 8.61631 13.1083C8.55368 13.2541 8.45727 13.3828 8.33506 13.484ZM17.3501 6.40696C17.2533 5.88351 17.1268 5.366 16.9711 4.85696C16.8308 4.43094 16.65 4.01938 16.4311 3.62796C16.2479 3.298 15.9641 3.03522 15.6211 2.87796C15.3844 2.79365 15.1313 2.76624 14.8821 2.79796C14.4514 2.87796 14.0281 2.98796 13.6121 3.12796C13.5694 3.13656 13.529 3.15366 13.4931 3.17823C13.4572 3.20281 13.4266 3.23436 13.4032 3.271C13.3797 3.30764 13.3639 3.34862 13.3567 3.39151C13.3494 3.43439 13.3509 3.47829 13.3609 3.5206C13.371 3.56292 13.3895 3.60276 13.4153 3.63778C13.4411 3.67279 13.4737 3.70225 13.5111 3.7244C13.5486 3.74655 13.5901 3.76093 13.6332 3.7667C13.6763 3.77247 13.7201 3.76949 13.7621 3.75796C14.0921 3.69196 14.4254 3.64863 14.7621 3.62796C14.9174 3.61665 15.073 3.64775 15.2121 3.71796C15.3521 3.79796 15.4121 3.97796 15.4921 4.14796C15.6354 4.49329 15.7421 4.84996 15.8121 5.21796C16.0021 5.77796 16.1321 6.34796 16.2721 6.91696C16.4121 7.48596 16.6021 8.08696 16.7621 8.66696C16.9221 9.24596 17.0121 9.48596 17.0121 9.49596C17.0911 9.91596 17.6311 9.57596 17.6711 8.96596C17.4711 7.93596 17.5501 7.43596 17.3501 6.40696ZM23.9681 16.523C23.8995 15.7957 23.7278 15.0819 23.4581 14.403C23.1912 13.716 22.8127 13.0777 22.3381 12.514C21.1951 11.2063 19.6656 10.2964 17.9711 9.91596C17.6111 9.74596 17.3411 10.006 17.3511 10.436C17.1962 10.9954 16.9567 11.5278 16.6411 12.015C16.2586 12.322 15.8 12.5196 15.3141 12.5865C14.8282 12.6534 14.3333 12.5872 13.8821 12.395C13.6028 12.3365 13.3123 12.368 13.0521 12.485C12.7293 12.586 12.4487 12.7904 12.2537 13.0668C12.0587 13.3431 11.96 13.676 11.9731 14.014C11.9717 14.326 12.0433 14.634 12.1822 14.9134C12.3211 15.1927 12.5234 15.4358 12.7731 15.623C12.9031 15.693 13.1731 15.823 13.5131 15.963C14.2831 16.283 15.5121 16.703 15.9811 16.963C15.9011 17.163 16.1911 17.693 16.2411 17.843C16.4782 18.5088 16.8415 19.1226 17.3111 19.651C17.4888 19.8562 17.7106 20.0186 17.96 20.126C18.2094 20.2333 18.4798 20.2829 18.7511 20.271C18.8465 20.271 18.9381 20.233 19.0056 20.1655C19.0731 20.098 19.1111 20.0064 19.1111 19.911C19.1111 19.8155 19.0731 19.7239 19.0056 19.6564C18.9381 19.5889 18.8465 19.551 18.7511 19.551C18.5897 19.5408 18.4326 19.4952 18.2908 19.4175C18.1491 19.3397 18.0263 19.2316 17.9311 19.101C17.5745 18.6383 17.3159 18.1079 17.1711 17.542C17.1211 17.362 17.1011 16.792 17.0211 16.542C16.9842 16.4036 16.8991 16.283 16.7811 16.202C16.5447 16.0506 16.2974 15.9172 16.0411 15.803C15.1711 15.403 13.7531 14.803 13.4231 14.603C13.3512 14.5272 13.2956 14.4375 13.2595 14.3395C13.2234 14.2416 13.2076 14.1372 13.2131 14.033C13.2041 13.9454 13.2236 13.8573 13.2686 13.7816C13.3137 13.706 13.3818 13.6469 13.4631 13.613C13.5788 13.5924 13.6973 13.5924 13.8131 13.613C14.3011 13.6623 14.7907 13.6823 15.2821 13.673C15.7225 13.6342 16.1489 13.4985 16.5308 13.2757C16.9127 13.0528 17.2406 12.7483 17.4911 12.384C17.8061 11.8697 17.9722 11.2781 17.9711 10.675C19.3426 11.1791 20.5397 12.0679 21.4191 13.235C21.7894 13.7321 22.092 14.2762 22.3191 14.853C22.5531 15.436 22.7211 16.043 22.8191 16.663C23.0491 18.167 22.9801 19.703 22.6191 21.181C22.5942 21.2737 22.6063 21.3726 22.653 21.4566C22.6996 21.5405 22.7771 21.6031 22.8691 21.631C22.9605 21.6556 23.058 21.6431 23.1404 21.5963C23.2228 21.5495 23.2834 21.4721 23.3091 21.381C23.8651 19.825 24.0881 18.171 23.9681 16.523Z" fill="white"/>
<path fill-rule="evenodd" clip-rule="evenodd" d="M14.8523 10.066C14.5623 9.06601 14.3023 8.06601 14.0223 7.06601C13.8423 6.39701 13.6323 5.73701 13.4423 5.06801C13.2864 4.36973 13.034 3.69659 12.6923 3.06801C12.5795 2.87433 12.4234 2.70942 12.2362 2.58623C12.049 2.46304 11.8358 2.38492 11.6133 2.35801C11.4537 2.34843 11.2945 2.38303 11.1533 2.45801C10.898 2.61134 10.6513 2.77801 10.4133 2.95801L7.9753 4.50801C7.93039 4.52052 7.88876 4.5427 7.85332 4.57299C7.81787 4.60328 7.78948 4.64094 7.77012 4.68335C7.75075 4.72576 7.74089 4.77189 7.74122 4.81851C7.74155 4.86513 7.75206 4.91111 7.77201 4.95324C7.79197 4.99538 7.82089 5.03264 7.85676 5.06243C7.89262 5.09221 7.93456 5.1138 7.97964 5.12569C8.02472 5.13757 8.07186 5.13946 8.11774 5.13122C8.16363 5.12299 8.20716 5.10483 8.2453 5.07801L10.8843 3.81801C11.3343 3.58801 11.4643 2.92801 11.8843 4.11801C12.0643 4.59801 12.1743 5.11801 12.2543 5.40801C12.6433 6.59701 13.0233 7.77601 13.4433 8.95601C13.8633 10.136 14.1333 10.566 14.5833 11.625C14.7823 12.205 15.3023 12.345 15.3023 11.915C15.0923 11.215 15.0623 10.765 14.8523 10.065" fill="white"/>
</g>
<defs>
<clipPath id="clip0_3226_22293">
<rect width="24" height="24" fill="white"/>
</clipPath>
</defs>
</svg>
