<svg width="52" height="52" viewBox="0 0 52 52" fill="none" xmlns="http://www.w3.org/2000/svg">
<rect x="0.5" y="0.5" width="51" height="51" rx="25.5" fill="#C90101" fill-opacity="0.08"/>
<rect x="0.5" y="0.5" width="51" height="51" rx="25.5" stroke="#C90101"/>
<path fill-rule="evenodd" clip-rule="evenodd" d="M18.9256 18.9261C19.078 18.7739 19.2845 18.6885 19.4998 18.6885C19.7151 18.6885 19.9216 18.7739 20.0739 18.9261L33.0739 31.9261C33.1538 32.0005 33.2178 32.0902 33.2622 32.1898C33.3066 32.2895 33.3305 32.3971 33.3324 32.5062C33.3343 32.6153 33.3143 32.7237 33.2734 32.8248C33.2325 32.926 33.1717 33.0179 33.0946 33.0951C33.0174 33.1722 32.9255 33.233 32.8243 33.2739C32.7232 33.3148 32.6148 33.3348 32.5057 33.3329C32.3966 33.331 32.289 33.3071 32.1894 33.2627C32.0897 33.2183 32 33.1543 31.9256 33.0744L18.9256 20.0744C18.7735 19.9221 18.688 19.7156 18.688 19.5003C18.688 19.2849 18.7735 19.0784 18.9256 18.9261Z" fill="#C90101"/>
<path fill-rule="evenodd" clip-rule="evenodd" d="M33.0739 18.9261C33.2261 19.0784 33.3115 19.2849 33.3115 19.5003C33.3115 19.7156 33.2261 19.9221 33.0739 20.0744L20.0739 33.0744C19.9199 33.2179 19.7162 33.2961 19.5057 33.2924C19.2952 33.2887 19.0944 33.2034 18.9455 33.0545C18.7966 32.9057 18.7114 32.7048 18.7076 32.4943C18.7039 32.2838 18.7821 32.0801 18.9256 31.9261L31.9256 18.9261C32.0779 18.7739 32.2844 18.6885 32.4998 18.6885C32.7151 18.6885 32.9216 18.7739 33.0739 18.9261Z" fill="#C90101"/>
</svg>
