<svg width="32" height="32" viewBox="0 0 32 32" fill="none" xmlns="http://www.w3.org/2000/svg">
<path fill-rule="evenodd" clip-rule="evenodd" d="M29.3334 16.0001C29.3334 23.3641 23.3641 29.3334 16.0001 29.3334C8.63608 29.3334 2.66675 23.3641 2.66675 16.0001C2.66675 8.63608 8.63608 2.66675 16.0001 2.66675C23.3641 2.66675 29.3334 8.63608 29.3334 16.0001ZM16.0001 26.6667C18.8291 26.6667 21.5422 25.5429 23.5426 23.5426C25.5429 21.5422 26.6667 18.8291 26.6667 16.0001C26.6667 13.1711 25.5429 10.458 23.5426 8.45761C21.5422 6.45722 18.8291 5.33341 16.0001 5.33341C13.1711 5.33341 10.458 6.45722 8.45761 8.45761C6.45722 10.458 5.33341 13.1711 5.33341 16.0001C5.33341 18.8291 6.45722 21.5422 8.45761 23.5426C10.458 25.5429 13.1711 26.6667 16.0001 26.6667Z" fill="#C90101"/>
<path fill-rule="evenodd" clip-rule="evenodd" d="M16.0001 18.6668C15.6465 18.6668 15.3073 18.5264 15.0573 18.2763C14.8072 18.0263 14.6667 17.6871 14.6667 17.3335V10.6668C14.6667 10.3132 14.8072 9.97407 15.0573 9.72402C15.3073 9.47397 15.6465 9.3335 16.0001 9.3335C16.3537 9.3335 16.6928 9.47397 16.9429 9.72402C17.1929 9.97407 17.3334 10.3132 17.3334 10.6668V17.3335C17.3334 17.6871 17.1929 18.0263 16.9429 18.2763C16.6928 18.5264 16.3537 18.6668 16.0001 18.6668Z" fill="#C90101"/>
<path d="M14.6667 21.3333C14.6667 20.9797 14.8072 20.6406 15.0573 20.3905C15.3073 20.1405 15.6465 20 16.0001 20C16.3537 20 16.6928 20.1405 16.9429 20.3905C17.1929 20.6406 17.3334 20.9797 17.3334 21.3333C17.3334 21.687 17.1929 22.0261 16.9429 22.2761C16.6928 22.5262 16.3537 22.6667 16.0001 22.6667C15.6465 22.6667 15.3073 22.5262 15.0573 22.2761C14.8072 22.0261 14.6667 21.687 14.6667 21.3333Z" fill="#C90101"/>
</svg>
