<svg width="32" height="32" viewBox="0 0 32 32" fill="none" xmlns="http://www.w3.org/2000/svg">
<path d="M12.0001 26.6667H8.00008C6.58559 26.6667 5.22904 26.1048 4.22885 25.1047C3.22865 24.1045 2.66675 22.7479 2.66675 21.3334V9.33342C2.66675 7.91893 3.22865 6.56237 4.22885 5.56218C5.22904 4.56198 6.58559 4.00008 8.00008 4.00008H22.6667C24.0812 4.00008 25.4378 4.56198 26.438 5.56218C27.4382 6.56237 28.0001 7.91893 28.0001 9.33342V13.3334M10.6667 2.66675V5.33341M20.0001 2.66675V5.33341M2.66675 10.6667H28.0001M24.6667 20.8574L22.6667 22.8574" stroke="url(#paint0_linear_1317_6975)" stroke-width="2" stroke-linecap="round" stroke-linejoin="round"/>
<path d="M22.6667 29.3333C26.3486 29.3333 29.3333 26.3486 29.3333 22.6667C29.3333 18.9848 26.3486 16 22.6667 16C18.9848 16 16 18.9848 16 22.6667C16 26.3486 18.9848 29.3333 22.6667 29.3333Z" stroke="#74505C" stroke-width="2" stroke-linecap="round" stroke-linejoin="round"/>
<defs>
<linearGradient id="paint0_linear_1317_6975" x1="15.3334" y1="2.66675" x2="15.3334" y2="26.6667" gradientUnits="userSpaceOnUse">
<stop stop-color="#93996D"/>
<stop offset="1" stop-color="#52553E"/>
</linearGradient>
</defs>
</svg>
