<svg width="29" height="28" viewBox="0 0 29 28" fill="none" xmlns="http://www.w3.org/2000/svg">
<path d="M3.15427 24.8889H26.8113C27.6823 24.8889 28.3884 25.5853 28.3884 26.4444C28.3884 27.3036 27.6823 28 26.8113 28H1.57713C0.706106 28 0 27.3036 0 26.4444V1.55556C0 0.696446 0.706106 0 1.57713 0C2.44816 0 3.15427 0.696446 3.15427 1.55556V24.8889Z" fill="#93996D"/>
<path opacity="0.5" d="M9.03362 18.175C8.43789 18.8017 7.43983 18.8335 6.80438 18.2459C6.16893 17.6583 6.13674 16.6739 6.73247 16.0472L12.6467 9.82494C13.2229 9.21879 14.1803 9.16623 14.821 9.70555L19.4889 13.6343L25.5708 6.03606C26.1105 5.36176 27.1023 5.24668 27.7859 5.77903C28.4696 6.31137 28.5862 7.28955 28.0465 7.96385L20.9494 16.8305C20.3951 17.5231 19.3683 17.6227 18.6878 17.0499L13.9185 13.0358L9.03362 18.175Z" fill="#93996D"/>
</svg>
