<svg width="36" height="36" viewBox="0 0 36 36" fill="none" xmlns="http://www.w3.org/2000/svg">
<path d="M11.2075 21.1364C10.7978 21.5553 10.1237 21.5552 9.7142 21.136C9.31782 20.7303 9.31792 20.0823 9.71442 19.6766L16.955 12.2694C17.0825 12.1382 17.234 12.0341 17.401 11.9631C17.5679 11.892 17.747 11.8555 17.9278 11.8555C18.1086 11.8555 18.2876 11.892 18.4545 11.9631C18.6215 12.0341 18.773 12.1382 18.9005 12.2694L26.1449 19.6767C26.5415 20.0822 26.5415 20.7303 26.145 21.1358C25.7357 21.5544 25.0622 21.5544 24.6529 21.1359L17.9298 14.2617L11.2075 21.1364Z" fill="#93996D"/>
</svg>
