<svg width="36" height="36" viewBox="0 0 36 36" fill="none" xmlns="http://www.w3.org/2000/svg">
<path d="M11.2075 14.5785C10.7978 14.1595 10.1237 14.1597 9.7142 14.5788C9.31782 14.9846 9.31792 15.6326 9.71442 16.0382L16.955 23.4455C17.0825 23.5767 17.234 23.6807 17.401 23.7518C17.5679 23.8228 17.747 23.8594 17.9278 23.8594C18.1086 23.8594 18.2876 23.8228 18.4545 23.7518C18.6215 23.6807 18.773 23.5767 18.9005 23.4455L26.1449 16.0382C26.5415 15.6326 26.5415 14.9846 26.145 14.579C25.7357 14.1605 25.0622 14.1604 24.6529 14.579L17.9298 21.4532L11.2075 14.5785Z" fill="#93996D"/>
</svg>
