<svg width="22" height="22" viewBox="0 0 22 22" fill="none" xmlns="http://www.w3.org/2000/svg">
<path d="M6.41699 2.75H14.667C15.3963 2.75 16.0958 3.03973 16.6115 3.55546C17.1273 4.07118 17.417 4.77065 17.417 5.5V17.4167C17.417 18.146 17.1273 18.8455 16.6115 19.3612C16.0958 19.8769 15.3963 20.1667 14.667 20.1667H6.41699C5.68765 20.1667 4.98817 19.8769 4.47245 19.3612C3.95672 18.8455 3.66699 18.146 3.66699 17.4167V5.5C3.66699 4.77065 3.95672 4.07118 4.47245 3.55546C4.98817 3.03973 5.68765 2.75 6.41699 2.75ZM6.41699 3.66667C5.93076 3.66667 5.46445 3.85982 5.12063 4.20364C4.77681 4.54745 4.58366 5.01377 4.58366 5.5V17.4167C4.58366 17.9029 4.77681 18.3692 5.12063 18.713C5.46445 19.0568 5.93076 19.25 6.41699 19.25H14.667C15.1532 19.25 15.6195 19.0568 15.9634 18.713C16.3072 18.3692 16.5003 17.9029 16.5003 17.4167V5.5C16.5003 5.01377 16.3072 4.54745 15.9634 4.20364C15.6195 3.85982 15.1532 3.66667 14.667 3.66667H11.917V9.80833L9.16699 7.88333L6.41699 9.80833V3.66667ZM11.0003 3.66667H7.33366V8.04833L9.16699 6.765L11.0003 8.04833V3.66667Z" fill="white"/>
</svg>
