<svg width="32" height="32" viewBox="0 0 32 32" fill="none" xmlns="http://www.w3.org/2000/svg">
<path d="M23.0002 2.66602C23.4817 2.66602 23.9585 2.76086 24.4033 2.94512C24.8482 3.12939 25.2524 3.39948 25.5929 3.73996C25.9334 4.08044 26.2035 4.48465 26.3877 4.92951C26.572 5.37437 26.6668 5.85117 26.6668 6.33268V25.666C26.6668 26.1475 26.572 26.6243 26.3877 27.0692C26.2035 27.514 25.9334 27.9183 25.5929 28.2587C25.2524 28.5992 24.8482 28.8693 24.4033 29.0536C23.9585 29.2378 23.4817 29.3327 23.0002 29.3327H9.00016C8.51854 29.3327 8.04163 29.2378 7.59668 29.0534C7.15174 28.8691 6.74747 28.5989 6.40697 28.2583C6.06647 27.9176 5.79641 27.5133 5.61222 27.0683C5.42803 26.6233 5.33332 26.1463 5.3335 25.6647V6.33268C5.3335 4.65268 6.4615 3.23935 8.00016 2.80335V4.99935C7.59483 5.30335 7.3335 5.78602 7.3335 6.33268V25.6633C7.3335 26.5833 8.08016 27.33 9.00016 27.33H23.0002C23.9202 27.33 24.6668 26.5833 24.6668 25.6633V6.33268C24.6668 5.41268 23.9202 4.66602 23.0002 4.66602H20.0002V2.66602H23.0002ZM18.6668 2.66602V13.518C18.6668 14.514 17.6002 14.8873 16.9468 14.5367L16.8375 14.4673L14.0028 12.754L11.2322 14.422C10.5655 14.902 9.45883 14.6087 9.34283 13.678L9.3335 13.5194V2.66602H18.6668ZM16.6668 4.66602H11.3335V12.03L13.4308 10.7647C13.5978 10.6756 13.7832 10.6263 13.9724 10.6207C14.1616 10.6152 14.3496 10.6535 14.5215 10.7327L16.6682 12.0313L16.6668 4.66602Z" fill="url(#paint0_linear_3226_11312)"/>
<defs>
<linearGradient id="paint0_linear_3226_11312" x1="16.0002" y1="2.66602" x2="16.0002" y2="29.3327" gradientUnits="userSpaceOnUse">
<stop stop-color="#93996D"/>
<stop offset="1" stop-color="#52553E"/>
</linearGradient>
</defs>
</svg>
