<svg width="55" height="55" viewBox="0 0 55 55" fill="none" xmlns="http://www.w3.org/2000/svg">
<g clip-path="url(#clip0_3226_19817)">
<path fill-rule="evenodd" clip-rule="evenodd" d="M30.25 44C31.7087 44 33.1076 44.5795 34.1391 45.6109C35.1705 46.6424 35.75 48.0413 35.75 49.5C35.75 50.9587 35.1705 52.3576 34.1391 53.3891C33.1076 54.4205 31.7087 55 30.25 55C28.7913 55 27.3924 54.4205 26.3609 53.3891C25.3295 52.3576 24.75 50.9587 24.75 49.5C24.75 48.0413 25.3295 46.6424 26.3609 45.6109C27.3924 44.5795 28.7913 44 30.25 44ZM13.0378 35.75C14.8611 35.75 16.6098 36.4743 17.8991 37.7636C19.1884 39.053 19.9128 40.8016 19.9128 42.625C19.9128 44.4484 19.1884 46.197 17.8991 47.4864C16.6098 48.7757 14.8611 49.5 13.0378 49.5C11.2144 49.5 9.4657 48.7757 8.17639 47.4864C6.88708 46.197 6.16275 44.4484 6.16275 42.625C6.16275 40.8016 6.88708 39.053 8.17639 37.7636C9.4657 36.4743 11.2144 35.75 13.0378 35.75ZM44.8773 37.125C46.3359 37.125 47.7349 37.7045 48.7663 38.7359C49.7978 39.7674 50.3773 41.1663 50.3773 42.625C50.3773 44.0837 49.7978 45.4826 48.7663 46.5141C47.7349 47.5455 46.3359 48.125 44.8773 48.125C43.4186 48.125 42.0196 47.5455 40.9882 46.5141C39.9567 45.4826 39.3773 44.0837 39.3773 42.625C39.3773 41.1663 39.9567 39.7674 40.9882 38.7359C42.0196 37.7045 43.4186 37.125 44.8773 37.125ZM50.875 25.6273C51.969 25.6273 53.0182 26.0618 53.7918 26.8354C54.5654 27.609 55 28.6582 55 29.7523C55 30.8463 54.5654 31.8955 53.7918 32.6691C53.0182 33.4427 51.969 33.8773 50.875 33.8773C49.781 33.8773 48.7318 33.4427 47.9582 32.6691C47.1846 31.8955 46.75 30.8463 46.75 29.7523C46.75 28.6582 47.1846 27.609 47.9582 26.8354C48.7318 26.0618 49.781 25.6273 50.875 25.6273ZM6.875 16.5C8.69836 16.5 10.447 17.2243 11.7364 18.5136C13.0257 19.803 13.75 21.5516 13.75 23.375C13.75 25.1984 13.0257 26.947 11.7364 28.2364C10.447 29.5257 8.69836 30.25 6.875 30.25C5.05164 30.25 3.30295 29.5257 2.01364 28.2364C0.724328 26.947 0 25.1984 0 23.375C0 21.5516 0.724328 19.803 2.01364 18.5136C3.30295 17.2243 5.05164 16.5 6.875 16.5ZM48.9115 14.3192C49.6408 14.3192 50.3403 14.609 50.856 15.1247C51.3718 15.6404 51.6615 16.3399 51.6615 17.0693C51.6615 17.7986 51.3718 18.4981 50.856 19.0138C50.3403 19.5295 49.6408 19.8193 48.9115 19.8193C48.1822 19.8193 47.4827 19.5295 46.967 19.0138C46.4512 18.4981 46.1615 17.7986 46.1615 17.0693C46.1615 16.3399 46.4512 15.6404 46.967 15.1247C47.4827 14.609 48.1822 14.3192 48.9115 14.3192ZM22 0C24.188 0 26.2865 0.869194 27.8336 2.41637C29.3808 3.96354 30.25 6.06196 30.25 8.25C30.25 10.438 29.3808 12.5365 27.8336 14.0836C26.2865 15.6308 24.188 16.5 22 16.5C19.812 16.5 17.7135 15.6308 16.1664 14.0836C14.6192 12.5365 13.75 10.438 13.75 8.25C13.75 6.06196 14.6192 3.96354 16.1664 2.41637C17.7135 0.869194 19.812 0 22 0ZM42.625 8.25C42.9897 8.25 43.3394 8.39487 43.5973 8.65273C43.8551 8.91059 44 9.26033 44 9.625C44 9.98967 43.8551 10.3394 43.5973 10.5973C43.3394 10.8551 42.9897 11 42.625 11C42.2603 11 41.9106 10.8551 41.6527 10.5973C41.3949 10.3394 41.25 9.98967 41.25 9.625C41.25 9.26033 41.3949 8.91059 41.6527 8.65273C41.9106 8.39487 42.2603 8.25 42.625 8.25Z" fill="url(#paint0_linear_3226_19817)"/>
</g>
<defs>
<linearGradient id="paint0_linear_3226_19817" x1="27.5" y1="0" x2="27.5" y2="55" gradientUnits="userSpaceOnUse">
<stop stop-color="#93996D"/>
<stop offset="1" stop-color="#52553E"/>
</linearGradient>
<clipPath id="clip0_3226_19817">
<rect width="55" height="55" fill="white"/>
</clipPath>
</defs>
</svg>
