<svg width="24" height="24" viewBox="0 0 24 24" fill="none" xmlns="http://www.w3.org/2000/svg">
<path d="M8.78399 21.9999C7.09899 21.2479 5.70699 20.0759 4.79199 18.5069M14.825 2.18592C16.502 1.70892 18.233 2.16292 19.442 3.39692" stroke="url(#paint0_linear_1317_6937)" stroke-width="1.5" stroke-linecap="round"/>
<path d="M10.4159 9.52598C10.5162 9.69784 10.6806 9.82283 10.873 9.87347C11.0654 9.9241 11.2701 9.89623 11.4419 9.79598C11.6138 9.69572 11.7388 9.53131 11.7894 9.33889C11.8401 9.14648 11.8122 8.94184 11.7119 8.76998L10.4159 9.52598ZM7.53793 12.133C7.58757 12.2181 7.65349 12.2926 7.73191 12.3522C7.81034 12.4118 7.89974 12.4554 7.99501 12.4805C8.09029 12.5055 8.18957 12.5116 8.28718 12.4983C8.3848 12.485 8.47884 12.4526 8.56393 12.403C8.64903 12.3533 8.72352 12.2874 8.78314 12.209C8.84276 12.1306 8.88635 12.0412 8.91143 11.9459C8.9365 11.8506 8.94256 11.7513 8.92926 11.6537C8.91597 11.5561 8.88357 11.4621 8.83393 11.377L7.53793 12.133ZM16.0469 10.149L16.4199 10.8C16.5059 10.7508 16.5812 10.685 16.6416 10.6066C16.702 10.5281 16.7462 10.4384 16.7718 10.3428C16.7974 10.2471 16.8038 10.1473 16.7906 10.0492C16.7774 9.95105 16.7449 9.85649 16.6949 9.77098L16.0469 10.149ZM17.0149 5.75398C17.0646 5.83907 17.1305 5.91356 17.2089 5.97318C17.2873 6.0328 17.3767 6.0764 17.472 6.10147C17.5673 6.12654 17.6666 6.1326 17.7642 6.1193C17.8618 6.10601 17.9558 6.07362 18.0409 6.02398C18.126 5.97434 18.2005 5.90842 18.2601 5.83C18.3198 5.75157 18.3634 5.66217 18.3884 5.5669C18.4135 5.47162 18.4196 5.37234 18.4063 5.27473C18.393 5.17711 18.3606 5.08307 18.3109 4.99798L17.0149 5.75398ZM13.7839 15.3C13.8336 15.3851 13.8995 15.4596 13.9779 15.5192C14.0563 15.5788 14.1457 15.6224 14.241 15.6475C14.3363 15.6725 14.4356 15.6786 14.5332 15.6653C14.6308 15.652 14.7248 15.6196 14.8099 15.57C14.895 15.5203 14.9695 15.4544 15.0291 15.376C15.0888 15.2976 15.1324 15.2082 15.1574 15.1129C15.1825 15.0176 15.1886 14.9183 15.1753 14.8207C15.162 14.7231 15.1296 14.6291 15.0799 14.544L13.7839 15.3ZM20.3469 8.48998C20.2455 8.32079 20.0815 8.19838 19.8904 8.14927C19.6993 8.10016 19.4966 8.12831 19.3262 8.22761C19.1557 8.32691 19.0312 8.48937 18.9797 8.6798C18.9282 8.87022 18.9538 9.07328 19.0509 9.24498L20.3469 8.48998ZM8.98693 20.18C9.16145 20.2755 9.36674 20.2977 9.55765 20.2418C9.74856 20.1859 9.90946 20.0565 10.0049 19.882C10.1004 19.7075 10.1227 19.5022 10.0668 19.3113C10.0109 19.1203 9.88145 18.9595 9.70693 18.864L8.98693 20.18ZM13.8889 19.545C13.7915 19.5596 13.6979 19.5932 13.6134 19.6439C13.529 19.6947 13.4554 19.7616 13.3968 19.8408C13.3382 19.92 13.2958 20.01 13.2719 20.1056C13.2481 20.2012 13.2434 20.3005 13.2579 20.398C13.2725 20.4954 13.3061 20.589 13.3569 20.6735C13.4076 20.7579 13.4745 20.8315 13.5537 20.8901C13.633 20.9487 13.7229 20.9911 13.8185 21.015C13.9141 21.0388 14.0135 21.0436 14.1109 21.029L13.8889 19.545ZM4.38293 9.01798C5.01593 8.65598 5.63993 8.87798 5.85393 9.24498L7.14993 8.48998C6.43393 7.26198 4.82693 7.03598 3.63793 7.71498L4.38293 9.01798ZM3.63793 7.71498C2.44793 8.39598 1.83493 9.89698 2.55493 11.131L3.85093 10.375C3.64093 10.015 3.75093 9.37898 4.38293 9.01798L3.63793 7.71498ZM7.04993 3.74998L7.89193 5.19398L9.18793 4.43798L8.34493 2.99498L7.04993 3.74998ZM7.89193 5.19398L10.4169 9.52498L11.7129 8.76998L9.18793 4.43798L7.89193 5.19398ZM8.83493 11.377L7.14993 8.48998L5.85393 9.24498L7.53793 12.133L8.83493 11.377ZM7.14993 8.48998L5.04493 4.87998L3.74993 5.63598L5.85393 9.24598L7.14993 8.48998ZM5.57693 3.52298C6.21093 3.16098 6.83493 3.38298 7.04893 3.74998L8.34493 2.99498C7.62893 1.76698 6.02193 1.53998 4.83293 2.21998L5.57693 3.52298ZM4.83293 2.21998C3.64293 2.90098 3.02993 4.40198 3.74993 5.63598L5.04493 4.87998C4.83493 4.51998 4.94593 3.88398 5.57693 3.52298L4.83293 2.21998ZM11.1899 3.30798L13.7159 7.63998L15.0119 6.88398L12.4859 2.55298L11.1899 3.30798ZM13.7159 7.63998L15.3999 10.527L16.6949 9.77098L15.0119 6.88398L13.7159 7.63998ZM9.71893 3.07998C10.3519 2.71898 10.9759 2.94098 11.1899 3.30798L12.4859 2.55298C11.7699 1.32498 10.1629 1.09898 8.97393 1.77898L9.71893 3.07998ZM8.97393 1.77898C7.78393 2.45898 7.17093 3.96098 7.89093 5.19498L9.18693 4.43898C8.97693 4.07898 9.08693 3.44298 9.71893 3.08198L8.97393 1.77898ZM15.5439 5.52698C16.1769 5.16498 16.8009 5.38598 17.0149 5.75398L18.3109 4.99798C17.5949 3.77098 15.9879 3.54598 14.7989 4.22498L15.5439 5.52698ZM14.7989 4.22498C13.6089 4.90498 12.9959 6.40598 13.7159 7.63998L15.0119 6.88498C14.8019 6.52498 14.9119 5.88798 15.5439 5.52698L14.7989 4.22498ZM2.55493 11.131L6.34293 17.628L7.63793 16.872L3.85093 10.375L2.55493 11.131ZM19.5409 10.085C21.1459 12.838 19.9509 16.679 16.5849 18.602L17.3299 19.904C21.2539 17.662 22.9509 12.955 20.8369 9.32898L19.5409 10.085ZM15.0799 14.545C14.4049 13.386 14.8769 11.682 16.4199 10.8L15.6749 9.49798C13.5729 10.699 12.5999 13.268 13.7839 15.3L15.0799 14.545ZM19.0509 9.24498L19.5409 10.085L20.8369 9.32898L20.3469 8.48998L19.0509 9.24498ZM9.70693 18.864C8.84781 18.4028 8.13057 17.7135 7.63793 16.872L6.34293 17.628C6.97336 18.7052 7.8881 19.5881 8.98693 20.18L9.70693 18.864ZM16.5859 18.602C15.7527 19.0797 14.8383 19.3994 13.8889 19.545L14.1109 21.029C15.2441 20.8556 16.3354 20.4742 17.3299 19.904L16.5859 18.602Z" fill="url(#paint1_linear_1317_6937)"/>
<defs>
<linearGradient id="paint0_linear_1317_6937" x1="12.117" y1="2" x2="12.117" y2="21.9999" gradientUnits="userSpaceOnUse">
<stop stop-color="#93996D"/>
<stop offset="1" stop-color="#52553E"/>
</linearGradient>
<linearGradient id="paint1_linear_1317_6937" x1="11.9999" y1="1.40112" x2="11.9999" y2="21.0372" gradientUnits="userSpaceOnUse">
<stop stop-color="#93996D"/>
<stop offset="1" stop-color="#52553E"/>
</linearGradient>
</defs>
</svg>
