<svg width="22" height="22" viewBox="0 0 22 22" fill="none" xmlns="http://www.w3.org/2000/svg">
<path d="M13.2913 8.2487C13.2913 8.85649 13.0499 9.43938 12.6201 9.86915C12.1904 10.2989 11.6075 10.5404 10.9997 10.5404C10.3919 10.5404 9.80899 10.2989 9.37922 9.86915C8.94945 9.43938 8.70801 8.85649 8.70801 8.2487C8.70801 7.64091 8.94945 7.05802 9.37922 6.62824C9.80899 6.19847 10.3919 5.95703 10.9997 5.95703C11.6075 5.95703 12.1904 6.19847 12.6201 6.62824C13.0499 7.05802 13.2913 7.64091 13.2913 8.2487Z" stroke="white" stroke-width="1.16735"/>
<path d="M12.5703 15.7028C12.2607 16.0007 11.8477 16.1671 11.4181 16.1671C10.9884 16.1671 10.5755 16.0007 10.2658 15.7028C7.43425 12.9592 3.64017 9.89483 5.49 5.44533C6.49192 3.03908 8.89358 1.5 11.4181 1.5C13.9426 1.5 16.3452 3.04 17.3462 5.44533C19.1942 9.88842 15.4093 12.9684 12.5703 15.7028Z" stroke="white" stroke-width="1.16735"/>
<path d="M16.5 18.332C16.5 19.3449 14.0378 20.1654 11 20.1654C7.96217 20.1654 5.5 19.3449 5.5 18.332" stroke="white" stroke-width="1.16735" stroke-linecap="round"/>
</svg>
