<svg width="29" height="29" viewBox="0 0 29 29" fill="none" xmlns="http://www.w3.org/2000/svg">
<path d="M24.138 14.4833H12.6725M21.7242 18.104L25.3449 14.4833L21.7242 10.8626M15.6897 8.44881V7.24192C15.6897 6.60174 15.4354 5.98778 14.9827 5.53511C14.53 5.08243 13.9161 4.82813 13.2759 4.82812H7.24143C6.60125 4.82813 5.98729 5.08243 5.53462 5.53511C5.08195 5.98778 4.82764 6.60174 4.82764 7.24192V21.7247C4.82764 22.3649 5.08195 22.9788 5.53462 23.4315C5.98729 23.8842 6.60125 24.1385 7.24143 24.1385H13.2759C13.9161 24.1385 14.53 23.8842 14.9827 23.4315C15.4354 22.9788 15.6897 22.3649 15.6897 21.7247V20.5178" stroke="#CF0000" stroke-width="2" stroke-linecap="round" stroke-linejoin="round"/>
</svg>
