<svg width="18" height="18" viewBox="0 0 18 18" fill="none" xmlns="http://www.w3.org/2000/svg">
<rect width="18" height="18" rx="9" transform="matrix(-1 0 0 1 18 0)" fill="white"/>
<path d="M4.52504 9.95817C4.52504 10.5422 4.75706 11.1023 5.17004 11.5153C5.58303 11.9283 6.14316 12.1603 6.72721 12.1603H9.13197L11.6204 14.4504C11.6598 14.4867 11.7088 14.5107 11.7616 14.5196C11.8144 14.5284 11.8686 14.5217 11.9176 14.5002C11.9666 14.4787 12.0083 14.4434 12.0376 14.3985C12.0668 14.3537 12.0824 14.3014 12.0823 14.2478V12.1603H12.1335C12.7176 12.1603 13.2777 11.9283 13.6907 11.5153C14.1037 11.1023 14.3357 10.5422 14.3357 9.95817V6.53998C14.3357 5.95595 14.1037 5.39584 13.6907 4.98287C13.2777 4.5699 12.7176 4.33789 12.1335 4.33789H9.84272" stroke="#74505C" stroke-width="0.875" stroke-linecap="round" stroke-linejoin="round"/>
<path fill-rule="evenodd" clip-rule="evenodd" d="M6.40269 9.43074C6.00505 9.43074 5.6113 9.35243 5.24393 9.20026C4.87656 9.0481 4.54276 8.82506 4.26158 8.5439C3.98041 8.26274 3.75737 7.92895 3.6052 7.56159C3.45303 7.19423 3.37471 6.8005 3.37471 6.40287C3.37471 6.00525 3.45303 5.61151 3.6052 5.24416C3.75737 4.8768 3.98041 4.54301 4.26158 4.26184C4.54276 3.98068 4.87656 3.75765 5.24393 3.60548C5.6113 3.45332 6.00505 3.375 6.40269 3.375C7.20576 3.375 7.97593 3.69401 8.54379 4.26184C9.11165 4.82968 9.43066 5.59983 9.43066 6.40287C9.43066 7.20591 9.11165 7.97606 8.54379 8.5439C7.97593 9.11174 7.20576 9.43074 6.40269 9.43074ZM6.40269 4.4799C6.32968 4.4799 6.25966 4.5089 6.20804 4.56052C6.15642 4.61214 6.12742 4.68216 6.12742 4.75516V6.12761H4.75492C4.68191 6.12761 4.61189 6.15661 4.56027 6.20823C4.50865 6.25985 4.47964 6.32987 4.47964 6.40287C4.47964 6.47588 4.50865 6.54589 4.56027 6.59751C4.61189 6.64913 4.68191 6.67813 4.75492 6.67813H6.12742V8.05058C6.12742 8.12359 6.15642 8.1936 6.20804 8.24522C6.25966 8.29684 6.32968 8.32585 6.40269 8.32585C6.47569 8.32585 6.54571 8.29684 6.59733 8.24522C6.64896 8.1936 6.67796 8.12359 6.67796 8.05058V6.67813H8.05046C8.12346 6.67813 8.19348 6.64913 8.2451 6.59751C8.29673 6.54589 8.32573 6.47588 8.32573 6.40287C8.32573 6.32987 8.29673 6.25985 8.2451 6.20823C8.19348 6.15661 8.12346 6.12761 8.05046 6.12761H6.67796V4.75516C6.67796 4.68216 6.64896 4.61214 6.59733 4.56052C6.54571 4.5089 6.47569 4.4799 6.40269 4.4799Z" fill="#74505C"/>
</svg>
