<svg width="22" height="22" viewBox="0 0 22 22" fill="none" xmlns="http://www.w3.org/2000/svg">
<path d="M10.9994 4.87787H5.58644C5.15306 4.87787 4.72394 4.96335 4.32364 5.12942C3.92335 5.29549 3.55974 5.53888 3.25363 5.84567C2.94753 6.15245 2.70494 6.5166 2.53976 6.91727C2.37459 7.31793 2.29006 7.74724 2.29102 8.18062V13.8291C2.29102 14.7031 2.63822 15.5413 3.25623 16.1593C3.56224 16.4653 3.92552 16.7081 4.32534 16.8737C4.72516 17.0393 5.15368 17.1245 5.58644 17.1245H10.9994C11.8734 17.1245 12.7116 16.7773 13.3296 16.1593C13.9476 15.5413 14.2948 14.7031 14.2948 13.8291V8.18154C14.2961 7.74797 14.2118 7.31841 14.0468 6.91748C13.8818 6.51655 13.6392 6.15213 13.3331 5.84513C13.0269 5.53812 12.6632 5.29457 12.2627 5.12843C11.8623 4.96229 11.4329 4.87683 10.9994 4.87695M19.7077 8.6527V13.3598C19.7077 13.589 19.6426 13.8145 19.5198 14.0088C19.3954 14.2037 19.2192 14.3602 19.011 14.4607C18.8042 14.5642 18.5713 14.6038 18.3419 14.5744C18.1157 14.5473 17.9012 14.4592 17.7213 14.3195L14.765 11.9472C14.623 11.8304 14.5082 11.684 14.4286 11.5182C14.349 11.3524 14.3064 11.1713 14.3039 10.9875C14.3039 10.8041 14.3452 10.6235 14.4259 10.4604C14.5102 10.3064 14.6257 10.1716 14.765 10.0644L17.7213 7.71129C17.9012 7.57108 18.1162 7.48294 18.3428 7.45645C18.5719 7.42712 18.8048 7.46654 19.011 7.5692C19.2161 7.6676 19.3898 7.821 19.5128 8.01231C19.6358 8.20361 19.7033 8.42531 19.7077 8.6527Z" stroke="white" stroke-width="1.23052" stroke-linecap="round" stroke-linejoin="round"/>
</svg>
