<svg width="25" height="21" viewBox="0 0 25 21" fill="none" xmlns="http://www.w3.org/2000/svg">
<path d="M17.6136 13.461L20.3864 14.9415L19.5341 16.3065L15.9091 14.3745V10.5H17.6136V13.461ZM25 13.65C25 17.7135 21.4432 21 17.0455 21C12.6477 21 9.09091 17.7135 9.09091 13.65C9.09091 13.293 9.125 12.9465 9.18182 12.6H0V0H20.4545V7.014C23.1364 8.2005 25 10.7205 25 13.65ZM9.86364 10.5C10.0682 10.122 10.2841 9.765 10.5455 9.4185C10.4432 9.45 10.3409 9.45 10.2273 9.45C8.34091 9.45 6.81818 8.043 6.81818 6.3C6.81818 4.557 8.34091 3.15 10.2273 3.15C12.1136 3.15 13.6364 4.557 13.6364 6.3C13.6364 6.5625 13.5909 6.825 13.5227 7.0665C14.5909 6.5835 15.7841 6.3 17.0455 6.3C17.4318 6.3 17.8068 6.3315 18.1818 6.384V4.2C17.5791 4.2 17.001 3.97875 16.5748 3.58492C16.1485 3.1911 15.9091 2.65695 15.9091 2.1H4.54545C4.54545 3.2655 3.53409 4.2 2.27273 4.2V8.4C2.87549 8.4 3.45357 8.62125 3.87979 9.01508C4.30601 9.4089 4.54545 9.94304 4.54545 10.5H9.86364ZM22.7273 13.65C22.7273 10.752 20.1818 8.4 17.0455 8.4C13.9091 8.4 11.3636 10.752 11.3636 13.65C11.3636 16.548 13.9091 18.9 17.0455 18.9C20.1818 18.9 22.7273 16.548 22.7273 13.65Z" fill="white"/>
</svg>
