<svg width="29" height="29" viewBox="0 0 29 29" fill="none" xmlns="http://www.w3.org/2000/svg">
<path d="M26.4135 6.51491C26.9307 7.84891 26.2069 8.76241 24.8064 9.66382C23.6766 10.3888 22.2375 11.1767 20.7126 12.5215C19.2167 13.8398 17.7582 15.4288 16.4617 16.9924C15.3524 18.3347 14.2963 19.7201 13.2958 21.1454C12.7956 21.8595 12.096 22.9253 12.096 22.9253C11.8449 23.3131 11.4991 23.6306 11.0913 23.8477C10.6835 24.0649 10.2271 24.1745 9.7651 24.1662C9.3034 24.1635 8.85008 24.0427 8.44823 23.8154C8.04639 23.588 7.70939 23.2616 7.46927 22.8673C6.26214 20.8409 5.33172 20.0398 4.90397 19.7534C3.75968 18.9825 2.41602 18.8713 2.41602 17.0782C2.41602 15.6535 3.61831 14.4996 5.10093 14.4996C6.14856 14.5382 7.12127 14.9503 7.98402 15.5303C8.53502 15.9 9.11864 16.3906 9.72522 17.0347C10.5381 15.9253 11.3835 14.8402 12.2603 13.7806C13.6583 12.095 15.3089 10.2861 17.0791 8.72495C18.8191 7.19037 20.831 5.75366 22.9637 4.99482C24.3533 4.49941 25.8976 5.1797 26.4135 6.51491Z" fill="white"/>
</svg>
