<svg width="18" height="18" viewBox="0 0 18 18" fill="none" xmlns="http://www.w3.org/2000/svg">
<path d="M14.25 2.25H13.5V0.75H12V2.25H6V0.75H4.5V2.25H3.75C2.9175 2.25 2.25 2.9175 2.25 3.75V14.25C2.25 14.6478 2.40804 15.0294 2.68934 15.3107C2.97064 15.592 3.35218 15.75 3.75 15.75H14.25C15.075 15.75 15.75 15.075 15.75 14.25V3.75C15.75 3.35218 15.592 2.97064 15.3107 2.68934C15.0294 2.40804 14.6478 2.25 14.25 2.25ZM14.25 14.25H3.75V6H14.25V14.25ZM9 7.5V9H12V11.25H9V12.75L6 10.125L9 7.5Z" fill="#1A1A1A"/>
</svg>
