<svg width="14" height="14" viewBox="0 0 14 14" fill="none" xmlns="http://www.w3.org/2000/svg">
<rect width="14" height="14" rx="7" transform="matrix(-1 0 0 1 14 0)" fill="white"/>
<path d="M5.71443 4.39316C5.5502 4.23257 5.55026 3.96831 5.71457 3.8078C5.87362 3.65241 6.12763 3.65245 6.28664 3.80788L9.1903 6.64621C9.24171 6.69617 9.28252 6.75558 9.31036 6.82102C9.3382 6.88645 9.35254 6.95663 9.35254 7.02751C9.35254 7.09839 9.3382 7.16857 9.31036 7.23401C9.28252 7.29944 9.24171 7.35885 9.1903 7.40881L6.28662 10.2486C6.12766 10.4041 5.87362 10.4041 5.71465 10.2487C5.55057 10.0882 5.55056 9.82423 5.71462 9.66378L8.4093 7.02832L5.71443 4.39316Z" fill="black"/>
</svg>
