<svg width="24" height="25" viewBox="0 0 24 25" fill="none" xmlns="http://www.w3.org/2000/svg">
<path d="M9.77595 7.82428C9.5024 7.54564 9.5025 7.09921 9.77619 6.82069C10.0569 6.53506 10.5173 6.53513 10.7979 6.82085L15.7551 11.8684C15.8432 11.9577 15.9132 12.0637 15.9609 12.1806C16.0086 12.2975 16.0332 12.4228 16.0332 12.5493C16.0332 12.6759 16.0086 12.8012 15.9609 12.9181C15.9132 13.0349 15.8432 13.141 15.7551 13.2302L10.7978 18.2805C10.5173 18.5663 10.0569 18.5663 9.77635 18.2805C9.50305 18.0022 9.50303 17.5562 9.7763 17.2778L14.4162 12.5508L9.77595 7.82428Z" fill="#1A1A1A"/>
</svg>
