<svg width="30" height="30" viewBox="0 0 30 30" fill="none" xmlns="http://www.w3.org/2000/svg">
<rect width="30" height="30" rx="15" fill="url(#paint0_linear_3226_21430)"/>
<g clip-path="url(#clip0_3226_21430)">
<path d="M16.5 20.9999H8.5C7.67 20.9999 7 20.3299 7 19.4999V9.37988C7 8.54988 7.67 7.87988 8.5 7.87988H19.5C20.33 7.87988 21 8.54988 21 9.37988V16.6299C21 16.9099 20.78 17.1299 20.5 17.1299C20.22 17.1299 20 16.9099 20 16.6299V9.37988C20 9.09988 19.78 8.87988 19.5 8.87988H8.5C8.22 8.87988 8 9.09988 8 9.37988V19.4999C8 19.7799 8.22 19.9999 8.5 19.9999H16.5C16.78 19.9999 17 20.2199 17 20.4999C17 20.7799 16.78 20.9999 16.5 20.9999Z" fill="white"/>
<path d="M11 10.62C10.72 10.62 10.5 10.4 10.5 10.12V7.5C10.5 7.22 10.72 7 11 7C11.28 7 11.5 7.22 11.5 7.5V10.12C11.5 10.4 11.28 10.62 11 10.62ZM17.12 10.62C16.84 10.62 16.62 10.4 16.62 10.12V7.5C16.62 7.22 16.84 7 17.12 7C17.4 7 17.62 7.22 17.62 7.5V10.12C17.62 10.4 17.4 10.62 17.12 10.62ZM20.5 13H7.5C7.22 13 7 12.78 7 12.5C7 12.22 7.22 12 7.5 12H20.5C20.78 12 21 12.22 21 12.5C21 12.78 20.78 13 20.5 13ZM19.5 23C17.57 23 16 21.43 16 19.5C16 17.57 17.57 16 19.5 16C21.43 16 23 17.57 23 19.5C23 21.43 21.43 23 19.5 23ZM19.5 17C18.837 17 18.2011 17.2634 17.7322 17.7322C17.2634 18.2011 17 18.837 17 19.5C17 20.163 17.2634 20.7989 17.7322 21.2678C18.2011 21.7366 18.837 22 19.5 22C20.163 22 20.7989 21.7366 21.2678 21.2678C21.7366 20.7989 22 20.163 22 19.5C22 18.837 21.7366 18.2011 21.2678 17.7322C20.7989 17.2634 20.163 17 19.5 17Z" fill="white"/>
<path d="M20.5 21C20.4344 21.0008 20.3694 20.9879 20.3091 20.962C20.2489 20.9362 20.1946 20.898 20.15 20.85L19.15 19.85C19.0558 19.7577 19.0019 19.6319 19 19.5V18C19 17.72 19.22 17.5 19.5 17.5C19.78 17.5 20 17.72 20 18V19.29L20.85 20.14C21.05 20.34 21.05 20.65 20.85 20.85C20.75 20.95 20.62 21 20.5 21Z" fill="white"/>
</g>
<defs>
<linearGradient id="paint0_linear_3226_21430" x1="15" y1="0" x2="15" y2="30" gradientUnits="userSpaceOnUse">
<stop stop-color="#93996D"/>
<stop offset="1" stop-color="#52553E"/>
</linearGradient>
<clipPath id="clip0_3226_21430">
<rect width="16" height="16" fill="white" transform="translate(7 7)"/>
</clipPath>
</defs>
</svg>
