<svg width="30" height="30" viewBox="0 0 30 30" fill="none" xmlns="http://www.w3.org/2000/svg">
<rect width="30" height="30" rx="15" fill="url(#paint0_linear_3226_21440)"/>
<path d="M16.875 12.75C16.875 13.2473 16.6775 13.7242 16.3258 14.0758C15.9742 14.4275 15.4973 14.625 15 14.625C14.5027 14.625 14.0258 14.4275 13.6742 14.0758C13.3225 13.7242 13.125 13.2473 13.125 12.75C13.125 12.2527 13.3225 11.7758 13.6742 11.4242C14.0258 11.0725 14.5027 10.875 15 10.875C15.4973 10.875 15.9742 11.0725 16.3258 11.4242C16.6775 11.7758 16.875 12.2527 16.875 12.75Z" stroke="white" stroke-width="1.16735"/>
<path d="M15.9426 19.1205C15.6893 19.3642 15.3514 19.5004 14.9999 19.5004C14.6483 19.5004 14.3105 19.3642 14.0571 19.1205C11.7404 16.8757 8.63612 14.3685 10.1496 10.728C10.9694 8.75925 12.9344 7.5 14.9999 7.5C17.0654 7.5 19.0311 8.76 19.8501 10.728C21.3621 14.3633 18.2654 16.8832 15.9426 19.1205Z" stroke="white" stroke-width="1.16735"/>
<path d="M19.5 21C19.5 21.8288 17.4855 22.5 15 22.5C12.5145 22.5 10.5 21.8288 10.5 21" stroke="white" stroke-width="1.16735" stroke-linecap="round"/>
<defs>
<linearGradient id="paint0_linear_3226_21440" x1="15" y1="0" x2="15" y2="30" gradientUnits="userSpaceOnUse">
<stop stop-color="#93996D"/>
<stop offset="1" stop-color="#52553E"/>
</linearGradient>
</defs>
</svg>
