<svg width="20" height="20" viewBox="0 0 20 20" fill="none" xmlns="http://www.w3.org/2000/svg">
<path d="M17.5806 10.5356L18.0558 8.76001C18.611 6.68753 18.8894 5.65176 18.6808 4.75476C18.5155 4.04662 18.1438 3.40342 17.6128 2.90653C16.9409 2.27698 15.9042 1.99942 13.8316 1.44431C11.759 0.888279 10.7222 0.610724 9.82607 0.81935C9.11789 0.9847 8.47465 1.35635 7.97773 1.8873C7.43821 2.46263 7.15696 3.3054 6.73877 4.83655L6.5145 5.6683L6.03932 7.44392C5.48326 9.51639 5.20569 10.5522 5.41432 11.4492C5.57968 12.1573 5.95136 12.8005 6.48234 13.2974C7.15421 13.927 8.19097 14.2045 10.2636 14.7605C12.1312 15.2605 13.1579 15.5353 13.9988 15.4315C14.0908 15.4198 14.1808 15.4039 14.2691 15.3837C14.977 15.2188 15.6202 14.8478 16.1174 14.3176C16.747 13.6448 17.0246 12.6081 17.5806 10.5356Z" stroke="white" stroke-width="1.5"/>
<path d="M13.9994 15.4318C13.8073 16.0203 13.4697 16.5507 13.0178 16.9739C12.346 17.6035 11.3092 17.881 9.2366 18.4362C7.16399 18.9913 6.12724 19.2697 5.2311 19.0602C4.52303 18.8951 3.8798 18.5238 3.38276 17.9932C2.75317 17.3213 2.47468 16.2846 1.91953 14.2122L1.44435 12.4365C0.888288 10.3641 0.610715 9.32737 0.819354 8.43129C0.984714 7.72315 1.35639 7.07996 1.88736 6.58307C2.55924 5.95351 3.596 5.67596 5.6686 5.11993C6.05953 5.01454 6.41645 4.91988 6.73936 4.83594" stroke="white" stroke-width="1.5"/>
<path d="M9.7371 8.10303L14.1764 9.29229M9.02295 10.7665L11.6865 11.4796" stroke="white" stroke-width="1.5" stroke-linecap="round"/>
</svg>
