<svg width="22" height="22" viewBox="0 0 22 22" fill="none" xmlns="http://www.w3.org/2000/svg">
<path d="M11.7827 3.20864C11.7047 3.06953 11.5911 2.95371 11.4535 2.8731C11.3159 2.79249 11.1593 2.75 10.9998 2.75C10.8404 2.75 10.6838 2.79249 10.5462 2.8731C10.4086 2.95371 10.295 3.06953 10.217 3.20864C10.0337 3.5423 9.85735 3.88025 9.68808 4.22247C9.15475 5.30501 8.70132 6.42511 8.33141 7.5738C8.20399 7.96889 7.82633 8.24297 7.39366 8.25489C6.08211 8.28936 4.77483 8.41957 3.48224 8.64447C2.77274 8.76914 2.50599 9.57764 3.01016 10.0708C3.12505 10.1839 3.24116 10.2954 3.35849 10.4054C4.2358 11.2339 5.16339 12.0075 6.13599 12.7218C6.47241 12.9684 6.61083 13.391 6.48249 13.7778C5.99363 15.2473 5.64376 16.7594 5.43749 18.2942C5.34583 18.9863 6.08649 19.4749 6.72999 19.1449C8.00603 18.4906 9.22623 17.7327 10.3783 16.8789C10.5588 16.7472 10.7764 16.6762 10.9998 16.6762C11.2232 16.6762 11.4409 16.7472 11.6213 16.8789C12.7732 17.7331 13.9934 18.491 15.2697 19.1449C15.9122 19.4749 16.6538 18.9863 16.5622 18.2942C16.5267 18.0345 16.4879 17.7763 16.4457 17.5196C16.234 16.2501 15.9235 14.999 15.5172 13.7778C15.3888 13.391 15.5263 12.9684 15.8637 12.7218C16.9671 11.9133 18.0117 11.0274 18.9895 10.0708C19.4937 9.57764 19.2278 8.76914 18.5174 8.64447C17.225 8.41826 15.9176 8.28804 14.606 8.25489C14.3986 8.25159 14.1973 8.18442 14.0295 8.06253C13.8617 7.94065 13.7355 7.76999 13.6682 7.5738C13.1812 6.06192 12.5498 4.59951 11.7827 3.20864Z" stroke="white" stroke-width="1.5" stroke-linecap="round" stroke-linejoin="round"/>
</svg>
