<svg width="55" height="55" viewBox="0 0 55 55" fill="none" xmlns="http://www.w3.org/2000/svg">
<rect width="55" height="55" rx="27.5" fill="url(#paint0_linear_3226_19854)"/>
<path d="M40.4134 18.8462C40.9739 20.2919 40.1895 21.2819 38.6717 22.2588C37.4473 23.0445 35.8877 23.8983 34.2351 25.3558C32.6139 26.7845 31.0333 28.5065 29.6282 30.2011C28.426 31.6558 27.2814 33.1573 26.1972 34.7019C25.6551 35.4758 24.8968 36.6308 24.8968 36.6308C24.6248 37.0512 24.25 37.3952 23.8081 37.6305C23.3661 37.8659 22.8714 37.9846 22.3708 37.9757C21.8704 37.9728 21.3791 37.8419 20.9436 37.5955C20.5081 37.3491 20.1429 36.9953 19.8827 36.568C18.5745 34.3719 17.5661 33.5037 17.1026 33.1933C15.8624 32.3579 14.4062 32.2374 14.4062 30.294C14.4062 28.7501 15.7092 27.4995 17.316 27.4995C18.4514 27.5414 19.5055 27.988 20.4405 28.6165C21.0377 29.0173 21.6702 29.5489 22.3276 30.2469C23.2086 29.0447 24.1247 27.8687 25.0749 26.7204C26.5901 24.8936 28.3789 22.9332 30.2973 21.2413C32.183 19.5782 34.3634 18.0212 36.6747 17.1988C38.1807 16.6619 39.8542 17.3992 40.4134 18.8462Z" fill="white"/>
<defs>
<linearGradient id="paint0_linear_3226_19854" x1="27.5" y1="0" x2="27.5" y2="55" gradientUnits="userSpaceOnUse">
<stop stop-color="#93996D"/>
<stop offset="1" stop-color="#52553E"/>
</linearGradient>
</defs>
</svg>
