<svg width="32" height="32" viewBox="0 0 32 32" fill="none" xmlns="http://www.w3.org/2000/svg">
<path d="M12.0002 26.6673H20.0002M16.0002 18.6673V26.6673M12.0002 12.0007H20.0002M5.3335 8.00065C5.3335 7.29341 5.61445 6.61513 6.11454 6.11503C6.61464 5.61494 7.29292 5.33398 8.00016 5.33398H24.0002C24.7074 5.33398 25.3857 5.61494 25.8858 6.11503C26.3859 6.61513 26.6668 7.29341 26.6668 8.00065V16.0007C26.6668 16.7079 26.3859 17.3862 25.8858 17.8863C25.3857 18.3864 24.7074 18.6673 24.0002 18.6673H8.00016C7.29292 18.6673 6.61464 18.3864 6.11454 17.8863C5.61445 17.3862 5.3335 16.7079 5.3335 16.0007V8.00065Z" stroke="url(#paint0_linear_3226_11338)" stroke-width="2.66667" stroke-linecap="round" stroke-linejoin="round"/>
<defs>
<linearGradient id="paint0_linear_3226_11338" x1="16.0002" y1="5.33398" x2="16.0002" y2="26.6673" gradientUnits="userSpaceOnUse">
<stop stop-color="#93996D"/>
<stop offset="1" stop-color="#52553E"/>
</linearGradient>
</defs>
</svg>
