<svg width="16" height="16" viewBox="0 0 16 16" fill="none" xmlns="http://www.w3.org/2000/svg">
<path d="M10.8179 5.72852C12.202 5.73615 12.9516 5.79788 13.4404 6.28661C13.9997 6.84597 13.9997 7.74579 13.9997 9.54542V10.1818C13.9997 11.9821 13.9997 12.8819 13.4404 13.4412C12.8816 14 11.9812 14 10.1816 14H5.09064C3.29101 14 2.39055 14 1.83182 13.4412C1.27246 12.8812 1.27246 11.9821 1.27246 10.1818V9.54542C1.27246 7.74579 1.27246 6.84597 1.83182 6.28661C2.32055 5.79788 3.07019 5.73615 4.45428 5.72852" stroke="white" stroke-width="0.954545" stroke-linecap="round"/>
<path d="M7.63565 9.54616V1.27344M5.72656 3.50071L7.63565 1.27344L9.54474 3.50071" stroke="white" stroke-width="0.954545" stroke-linecap="round" stroke-linejoin="round"/>
</svg>
