<svg width="35" height="35" viewBox="0 0 35 35" fill="none" xmlns="http://www.w3.org/2000/svg">
<path d="M13.125 21.875H18.5938C19.7969 21.875 20.7812 20.8906 20.7812 19.6875C20.7812 18.4844 19.7969 17.5 18.5938 17.5H16.4062C15.2031 17.5 14.2188 16.5156 14.2188 15.3125C14.2188 14.1094 15.2031 13.125 16.4062 13.125H21.875M17.5 9.84375V12.3966M17.5 20.7812V25.1562M31.7188 17.5C31.7187 21.271 30.2207 24.8876 27.5542 27.5542C24.8876 30.2207 21.271 31.7188 17.5 31.7188C13.729 31.7188 10.1124 30.2207 7.44583 27.5542C4.77929 24.8876 3.28125 21.271 3.28125 17.5C3.28125 13.729 4.77929 10.1124 7.44583 7.44583C10.1124 4.77929 13.729 3.28125 17.5 3.28125C21.271 3.28125 24.8876 4.77929 27.5542 7.44583C30.2207 10.1124 31.7187 13.729 31.7188 17.5Z" stroke="url(#paint0_linear_1509_3406)" stroke-width="1.5" stroke-miterlimit="10" stroke-linejoin="round"/>
<defs>
<linearGradient id="paint0_linear_1509_3406" x1="17.5" y1="3.28125" x2="17.5" y2="31.7188" gradientUnits="userSpaceOnUse">
<stop stop-color="#93996D"/>
<stop offset="1" stop-color="#52553E"/>
</linearGradient>
</defs>
</svg>
