<svg width="21" height="20" viewBox="0 0 21 20" fill="none" xmlns="http://www.w3.org/2000/svg">
<path d="M0.80542 9.54555C0.80542 6.07623 0.80542 4.34111 1.88366 3.26379C2.9619 2.18647 4.6961 2.18555 8.16542 2.18555H11.8454C15.3147 2.18555 17.0499 2.18555 18.1272 3.26379C19.2045 4.34203 19.2054 6.07623 19.2054 9.54555V11.3855C19.2054 14.8549 19.2054 16.59 18.1272 17.6673C17.0489 18.7446 15.3147 18.7455 11.8454 18.7455H8.16542C4.6961 18.7455 2.96098 18.7455 1.88366 17.6673C0.80634 16.5891 0.80542 14.8549 0.80542 11.3855V9.54555Z" stroke="white" stroke-width="1.61094"/>
<path d="M5.40172 2.18566V0.805664M14.6017 2.18566V0.805664M1.26172 6.78566H18.7417" stroke="white" stroke-width="1.61094" stroke-linecap="round"/>
<path d="M15.5256 14.1454C15.5256 14.3894 15.4287 14.6234 15.2561 14.7959C15.0836 14.9685 14.8496 15.0654 14.6056 15.0654C14.3616 15.0654 14.1276 14.9685 13.9551 14.7959C13.7825 14.6234 13.6856 14.3894 13.6856 14.1454C13.6856 13.9014 13.7825 13.6674 13.9551 13.4949C14.1276 13.3223 14.3616 13.2254 14.6056 13.2254C14.8496 13.2254 15.0836 13.3223 15.2561 13.4949C15.4287 13.6674 15.5256 13.9014 15.5256 14.1454ZM15.5256 10.4654C15.5256 10.7094 15.4287 10.9434 15.2561 11.1159C15.0836 11.2885 14.8496 11.3854 14.6056 11.3854C14.3616 11.3854 14.1276 11.2885 13.9551 11.1159C13.7825 10.9434 13.6856 10.7094 13.6856 10.4654C13.6856 10.2214 13.7825 9.98741 13.9551 9.81487C14.1276 9.64234 14.3616 9.54541 14.6056 9.54541C14.8496 9.54541 15.0836 9.64234 15.2561 9.81487C15.4287 9.98741 15.5256 10.2214 15.5256 10.4654ZM10.9256 14.1454C10.9256 14.3894 10.8287 14.6234 10.6561 14.7959C10.4836 14.9685 10.2496 15.0654 10.0056 15.0654C9.7616 15.0654 9.52759 14.9685 9.35506 14.7959C9.18252 14.6234 9.0856 14.3894 9.0856 14.1454C9.0856 13.9014 9.18252 13.6674 9.35506 13.4949C9.52759 13.3223 9.7616 13.2254 10.0056 13.2254C10.2496 13.2254 10.4836 13.3223 10.6561 13.4949C10.8287 13.6674 10.9256 13.9014 10.9256 14.1454ZM10.9256 10.4654C10.9256 10.7094 10.8287 10.9434 10.6561 11.1159C10.4836 11.2885 10.2496 11.3854 10.0056 11.3854C9.7616 11.3854 9.52759 11.2885 9.35506 11.1159C9.18252 10.9434 9.0856 10.7094 9.0856 10.4654C9.0856 10.2214 9.18252 9.98741 9.35506 9.81487C9.52759 9.64234 9.7616 9.54541 10.0056 9.54541C10.2496 9.54541 10.4836 9.64234 10.6561 9.81487C10.8287 9.98741 10.9256 10.2214 10.9256 10.4654ZM6.3256 14.1454C6.3256 14.3894 6.22867 14.6234 6.05613 14.7959C5.8836 14.9685 5.64959 15.0654 5.4056 15.0654C5.1616 15.0654 4.92759 14.9685 4.75506 14.7959C4.58252 14.6234 4.4856 14.3894 4.4856 14.1454C4.4856 13.9014 4.58252 13.6674 4.75506 13.4949C4.92759 13.3223 5.1616 13.2254 5.4056 13.2254C5.64959 13.2254 5.8836 13.3223 6.05613 13.4949C6.22867 13.6674 6.3256 13.9014 6.3256 14.1454ZM6.3256 10.4654C6.3256 10.7094 6.22867 10.9434 6.05613 11.1159C5.8836 11.2885 5.64959 11.3854 5.4056 11.3854C5.1616 11.3854 4.92759 11.2885 4.75506 11.1159C4.58252 10.9434 4.4856 10.7094 4.4856 10.4654C4.4856 10.2214 4.58252 9.98741 4.75506 9.81487C4.92759 9.64234 5.1616 9.54541 5.4056 9.54541C5.64959 9.54541 5.8836 9.64234 6.05613 9.81487C6.22867 9.98741 6.3256 10.2214 6.3256 10.4654Z" fill="white"/>
</svg>
