<svg width="8" height="5" viewBox="0 0 8 5" fill="none" xmlns="http://www.w3.org/2000/svg">
<path d="M6.67528 0.170854C5.12231 1.83912 2.47997 1.83912 0.926993 0.170854C0.71493 -0.0569515 0.371109 -0.0569515 0.159047 0.170854C-0.0530156 0.39866 -0.0530156 0.768006 0.159047 0.995812L3.41717 4.49581C3.62923 4.72362 3.97305 4.72362 4.18511 4.49581L7.44323 0.995812C7.65529 0.768006 7.65529 0.39866 7.44323 0.170854C7.23117 -0.0569515 6.88735 -0.0569515 6.67528 0.170854Z" fill="#646464"/>
<mask id="mask0_1317_6945" style="mask-type:luminance" maskUnits="userSpaceOnUse" x="0" y="0" width="8" height="5">
<path d="M6.67528 0.170854C5.12231 1.83912 2.47997 1.83912 0.926993 0.170854C0.71493 -0.0569515 0.371109 -0.0569515 0.159047 0.170854C-0.0530156 0.39866 -0.0530156 0.768006 0.159047 0.995812L3.41717 4.49581C3.62923 4.72362 3.97305 4.72362 4.18511 4.49581L7.44323 0.995812C7.65529 0.768006 7.65529 0.39866 7.44323 0.170854C7.23117 -0.0569515 6.88735 -0.0569515 6.67528 0.170854Z" fill="white"/>
</mask>
<g mask="url(#mask0_1317_6945)">
</g>
</svg>
