<svg width="34" height="34" viewBox="0 0 34 34" fill="none" xmlns="http://www.w3.org/2000/svg">
<rect width="31" height="31" rx="15.5" transform="matrix(1 0 0 -1 1.29175 32.2917)" fill="white"/>
<rect x="-0.645833" y="0.645833" width="32.2917" height="32.2917" rx="16.1458" transform="matrix(1 0 0 -1 1.29175 33.5834)" stroke="black" stroke-opacity="0.04" stroke-width="1.29167"/>
<path fill-rule="evenodd" clip-rule="evenodd" d="M19.5892 21.6556C19.9928 21.2521 19.9928 20.5978 19.5892 20.1942L16.1866 16.7916L19.5892 13.3889C19.9928 12.9854 19.9928 12.3311 19.5892 11.9276C19.1857 11.524 18.5314 11.524 18.1279 11.9276L13.9946 16.0609C13.591 16.4644 13.591 17.1187 13.9946 17.5223L18.1279 21.6556C18.5314 22.0591 19.1857 22.0591 19.5892 21.6556Z" fill="#1A1A1A"/>
</svg>
