<svg width="26" height="26" viewBox="0 0 26 26" fill="none" xmlns="http://www.w3.org/2000/svg">
<path d="M10.6126 8.15936C10.3077 7.86112 10.3078 7.37034 10.6129 7.07225C10.9083 6.78368 11.38 6.78375 11.6753 7.07241L17.0678 12.3436C17.1633 12.4364 17.2391 12.5467 17.2908 12.6682C17.3425 12.7898 17.3691 12.9201 17.3691 13.0517C17.3691 13.1833 17.3425 13.3137 17.2908 13.4352C17.2391 13.5567 17.1633 13.6671 17.0678 13.7599L11.6753 19.0338C11.3801 19.3225 10.9083 19.3225 10.6131 19.0339C10.3083 18.7359 10.3083 18.2456 10.613 17.9476L15.6174 13.0532L10.6126 8.15936Z" fill="black"/>
</svg>
