<svg width="33" height="33" viewBox="0 0 33 33" fill="none" xmlns="http://www.w3.org/2000/svg">
<path d="M26.6114 14.4896V9.14237C26.6114 8.00784 26.6544 6.57724 25.8499 5.77499C25.0454 4.97276 23.4591 4.86459 22.3214 4.86459H9.45139C8.31361 4.86459 6.57947 4.69773 5.77494 5.49996C4.97041 6.30221 5.1614 8.00784 5.1614 9.14237V19.8368C5.1614 20.9714 5.61337 22.0593 6.4179 22.8616C7.22243 23.6638 8.31361 24.1146 9.45139 24.1146H15.8864" stroke="white" stroke-width="2" stroke-linecap="round" stroke-linejoin="round"/>
<path d="M26.125 6.32499C15.4 17.05 17.05 17.6 5.5 6.04999" stroke="white" stroke-width="2" stroke-linecap="round" stroke-linejoin="round"/>
<path d="M23.8156 29.3396H25.5573M22.2481 31.8146H27.1248C28.1002 31.8146 28.5879 31.8146 28.9605 31.6348C29.2882 31.4766 29.5546 31.2241 29.7216 30.9137C29.9114 30.5608 29.9114 30.0987 29.9114 29.1746V19.6046C29.9114 18.6805 29.9114 18.2185 29.7216 17.8655C29.5546 17.555 29.2882 17.3026 28.9605 17.1444C28.5879 16.9646 28.1002 16.9646 27.1248 16.9646H22.2481C21.2727 16.9646 20.785 16.9646 20.4124 17.1444C20.0847 17.3026 19.8182 17.555 19.6513 17.8655C19.4614 18.2185 19.4614 18.6805 19.4614 19.6046V29.1746C19.4614 30.0987 19.4614 30.5608 19.6513 30.9137C19.8182 31.2241 20.0847 31.4766 20.4124 31.6348C20.785 31.8146 21.2727 31.8146 22.2481 31.8146Z" stroke="white" stroke-width="2" stroke-linecap="round" stroke-linejoin="round"/>
</svg>
