<svg width="265" height="171" viewBox="0 0 265 171" fill="none" xmlns="http://www.w3.org/2000/svg">
<path d="M258 126.935H252.183C250.555 126.935 249.235 125.615 249.235 123.986C247.747 125.208 246.074 126.138 244.215 126.775C242.356 127.413 240.31 127.731 238.079 127.731C235.211 127.731 232.555 127.227 230.111 126.217C227.721 125.155 225.622 123.721 223.816 121.915C222.063 120.055 220.682 117.877 219.673 115.381C218.663 112.831 218.159 110.095 218.159 107.173C218.159 104.199 218.663 101.436 219.673 98.8864C220.735 96.3365 222.169 94.132 223.976 92.2727C225.835 90.4135 227.986 88.9526 230.43 87.8902C232.927 86.8278 235.636 86.2965 238.557 86.2965C241.267 86.2965 243.79 86.7746 246.127 87.7308C248.518 88.6339 250.589 89.9088 252.342 91.5556C254.096 93.2024 255.477 95.1413 256.486 97.3724C257.495 99.6035 258 102.021 258 104.624V126.935ZM226.924 107.173C226.924 108.98 227.189 110.653 227.721 112.193C228.305 113.734 229.075 115.062 230.031 116.177C231.041 117.293 232.236 118.17 233.617 118.807C234.998 119.444 236.512 119.763 238.159 119.763C239.7 119.763 241.134 119.498 242.462 118.966C243.843 118.435 245.012 117.718 245.968 116.815C246.977 115.859 247.774 114.743 248.358 113.468C248.943 112.193 249.235 110.839 249.235 109.404V104.624C249.235 103.136 248.943 101.782 248.358 100.56C247.827 99.2848 247.083 98.1958 246.127 97.2927C245.171 96.3365 244.029 95.5928 242.701 95.0616C241.426 94.5304 240.018 94.2648 238.478 94.2648C236.831 94.2648 235.29 94.5835 233.856 95.221C232.422 95.8584 231.2 96.7615 230.191 97.9302C229.181 99.0457 228.385 100.4 227.8 101.994C227.216 103.535 226.924 105.261 226.924 107.173Z" fill="#93996D"/>
<path d="M171.943 75.9378C171.943 71.097 175.867 67.1727 180.708 67.1727V90.0416C182.196 88.8198 183.869 87.8902 185.728 87.2527C187.587 86.6153 189.633 86.2965 191.864 86.2965C194.732 86.2965 197.362 86.8278 199.752 87.8902C202.196 88.8995 204.294 90.3338 206.047 92.1931C207.853 93.9992 209.261 96.1772 210.27 98.727C211.28 101.224 211.784 103.933 211.784 106.855C211.784 109.829 211.253 112.592 210.191 115.142C209.181 117.691 207.747 119.896 205.888 121.755C204.082 123.615 201.93 125.075 199.434 126.138C196.99 127.2 194.307 127.731 191.386 127.731C188.676 127.731 186.127 127.28 183.736 126.377C181.399 125.421 179.354 124.119 177.601 122.472C175.848 120.826 174.466 118.887 173.457 116.656C172.448 114.424 171.943 112.007 171.943 109.404V75.9378ZM180.708 109.404C180.708 110.892 180.974 112.273 181.505 113.548C182.089 114.77 182.86 115.859 183.816 116.815C184.772 117.718 185.888 118.435 187.162 118.966C188.491 119.498 189.925 119.763 191.465 119.763C193.165 119.763 194.706 119.444 196.087 118.807C197.521 118.17 198.743 117.293 199.752 116.178C200.762 115.009 201.558 113.654 202.143 112.114C202.727 110.52 203.019 108.767 203.019 106.855C203.019 104.995 202.727 103.295 202.143 101.755C201.612 100.214 200.841 98.8864 199.832 97.7708C198.876 96.6553 197.707 95.8053 196.326 95.221C194.945 94.5835 193.431 94.2648 191.784 94.2648C190.244 94.2648 188.783 94.5304 187.402 95.0616C186.073 95.5928 184.905 96.3366 183.895 97.2927C182.939 98.1958 182.169 99.2848 181.585 100.56C181 101.835 180.708 103.189 180.708 104.624V109.404Z" fill="#93996D"/>
<path d="M76.3237 127.731C71.4829 127.731 67.5586 123.807 67.5586 118.966V87.8902H71.7818C74.2902 87.8902 76.3237 89.9237 76.3237 92.4321C78.0767 90.7853 80.0953 89.4838 82.3795 88.5277C84.7169 87.5715 87.2136 87.0934 89.8697 87.0934C92.3133 87.0934 94.5179 87.5449 96.4834 88.448C98.502 89.2979 100.228 90.5463 101.663 92.1931C103.097 93.8398 104.186 95.8319 104.93 98.1692C105.727 100.507 106.125 103.136 106.125 106.058V127.731C101.284 127.731 97.3599 123.807 97.3599 118.966V106.058C97.3599 102.605 96.5099 99.9223 94.81 98.0099C93.1101 96.0444 90.7993 95.0616 87.8776 95.0616C86.2309 95.0616 84.6903 95.3804 83.2561 96.0178C81.8749 96.6022 80.6531 97.4255 79.5907 98.488C78.5813 99.4973 77.7845 100.693 77.2002 102.074C76.6158 103.402 76.3237 104.783 76.3237 106.217V127.731Z" fill="#93996D"/>
<path d="M34.0918 70.36C37.9697 70.36 41.5561 71.13 44.8496 72.6706C48.143 74.1579 50.9846 76.2035 53.375 78.8063C55.8186 81.3562 57.7311 84.3843 59.1123 87.8903C60.4934 91.3431 61.1846 95.0615 61.1846 99.0456C61.1846 103.03 60.4935 106.775 59.1123 110.281C57.7311 113.734 55.8186 116.762 53.375 119.365C50.9846 121.915 48.143 123.96 44.8496 125.501C41.5561 126.988 37.9697 127.731 34.0918 127.731C30.2141 127.731 26.6284 126.988 23.335 125.501C20.0415 123.96 17.173 121.915 14.7295 119.365C12.339 116.762 10.4525 113.734 9.07129 110.281C7.69018 106.775 7 103.03 7 99.0456C7.00002 95.0616 7.69021 91.3431 9.07129 87.8903C10.4525 84.3843 12.339 81.3562 14.7295 78.8063C17.1731 76.2034 20.0415 74.158 23.335 72.6706C26.6284 71.1301 30.2141 70.3601 34.0918 70.36ZM34.0918 78.3278C31.5421 78.3278 29.2048 78.8592 27.0801 79.9216C24.9552 80.9309 23.0956 82.366 21.502 84.2253C19.9616 86.0313 18.7399 88.2089 17.8369 90.7585C16.987 93.3083 16.5615 96.0708 16.5615 99.0456C16.5615 102.02 16.987 104.783 17.8369 107.333C18.7399 109.882 19.9616 112.087 21.502 113.946C23.0956 115.752 24.9552 117.187 27.0801 118.25C29.2048 119.259 31.5422 119.763 34.0918 119.763C36.6416 119.763 38.9796 119.259 41.1045 118.25C43.2293 117.187 45.062 115.752 46.6025 113.946C48.196 112.087 49.4177 109.882 50.2676 107.333C51.1706 104.783 51.6221 102.02 51.6221 99.0456C51.6221 96.0708 51.1706 93.3083 50.2676 90.7585C49.4177 88.2089 48.1959 86.0313 46.6025 84.2253C45.062 82.366 43.2293 80.9309 41.1045 79.9216C38.9796 78.8591 36.6416 78.3278 34.0918 78.3278Z" fill="#93996D"/>
<path d="M144.256 103.23V127.732C140.412 127.365 137.081 125.939 136.487 121.158C134.69 80.7196 136.487 88.6878 151.427 70.3606C155.611 75.1418 147.045 80.3213 148.041 83.9069C166.169 77.5324 164.774 57.8109 170.352 60.2011C164.376 92.6719 144.256 92.6719 144.256 103.23Z" fill="#74505C"/>
<path d="M125.527 103.23V127.732C129.371 127.365 132.702 125.939 133.296 121.158C135.093 80.7196 133.296 88.6878 118.356 70.3606C114.172 75.1418 122.738 80.3213 121.742 83.9069C103.614 77.5324 105.009 57.8109 99.4313 60.2011C105.407 92.6719 125.527 92.6719 125.527 103.23Z" fill="#74505C"/>
<path d="M140.797 70.5343C142.962 63.8486 145.355 61.4365 151.624 59.6278C145.355 57.8191 142.962 55.407 140.797 48.7212C138.631 55.407 136.238 57.8191 129.969 59.6278C136.238 61.4365 138.631 63.8486 140.797 70.5343ZM126.36 54.1745C127.443 50.8298 128.639 49.6247 131.774 48.7212C128.639 47.8178 127.443 46.6126 126.36 43.268C125.277 46.6126 124.081 47.8178 120.946 48.7212C124.081 49.6247 125.277 50.8298 126.36 54.1745ZM129.067 72.3521C129.608 70.6798 130.206 70.0781 131.774 69.6255C130.206 69.1728 129.608 68.5712 129.067 66.8988C128.526 68.5712 127.928 69.1728 126.36 69.6255C127.928 70.0781 128.526 70.6798 129.067 72.3521Z" fill="#93996D"/>
</svg>
