<svg width="20" height="20" viewBox="0 0 20 20" fill="none" xmlns="http://www.w3.org/2000/svg">
<path d="M1.95921 11.0117C1.66504 9.09675 1.51754 8.14008 1.88004 7.29091C2.24171 6.44258 3.04504 5.86175 4.65088 4.70091L5.85088 3.83341C7.84838 2.38925 8.84754 1.66675 10 1.66675C11.1525 1.66675 12.1517 2.38925 14.1492 3.83341L15.3492 4.70091C16.955 5.86175 17.7575 6.44258 18.12 7.29091C18.4817 8.14008 18.335 9.09675 18.0409 11.0109L17.79 12.6442C17.3734 15.3576 17.1642 16.7142 16.1909 17.5242C15.2175 18.3342 13.795 18.3334 10.9492 18.3334H9.05004C6.20421 18.3334 4.78171 18.3334 3.80838 17.5242C2.83504 16.7142 2.62671 15.3576 2.20921 12.6434L1.95921 11.0117Z" stroke="#1A1A1A" stroke-width="1.25" stroke-linejoin="round"/>
<path d="M10 8.3335V13.3335M7.5 10.8335H12.5" stroke="#1A1A1A" stroke-width="1.25" stroke-linecap="round"/>
</svg>
